<svg width="200" height="200" viewBox="0 0 200 200" fill="none" xmlns="http://www.w3.org/2000/svg">
<circle cx="100" cy="100" r="100" fill="#C55514"/>
<g filter="url(#filter0_d_79_299)">
<path d="M135 81H65C59.4772 81 55 85.4772 55 91V126C55 131.523 59.4772 136 65 136H135C140.523 136 145 131.523 145 126V91C145 85.4772 140.523 81 135 81Z" stroke="white" stroke-width="2" stroke-linecap="round" stroke-linejoin="round"/>
<path d="M75 81V61C75 54.3696 77.6339 48.0107 82.3223 43.3223C87.0107 38.6339 93.3696 36 100 36C106.63 36 112.989 38.6339 117.678 43.3223C122.366 48.0107 125 54.3696 125 61V81" stroke="white" stroke-width="2" stroke-linecap="round" stroke-linejoin="round"/>
</g>
<defs>
<filter id="filter0_d_79_299" x="36" y="26" width="128" height="128" filterUnits="userSpaceOnUse" color-interpolation-filters="sRGB">
<feFlood flood-opacity="0" result="BackgroundImageFix"/>
<feColorMatrix in="SourceAlpha" type="matrix" values="0 0 0 0 0 0 0 0 0 0 0 0 0 0 0 0 0 0 127 0" result="hardAlpha"/>
<feOffset dy="4"/>
<feGaussianBlur stdDeviation="2"/>
<feComposite in2="hardAlpha" operator="out"/>
<feColorMatrix type="matrix" values="0 0 0 0 0 0 0 0 0 0 0 0 0 0 0 0 0 0 0.25 0"/>
<feBlend mode="normal" in2="BackgroundImageFix" result="effect1_dropShadow_79_299"/>
<feBlend mode="normal" in="SourceGraphic" in2="effect1_dropShadow_79_299" result="shape"/>
</filter>
</defs>
</svg>
