<svg width="120" height="120" viewBox="0 0 120 120" fill="none" xmlns="http://www.w3.org/2000/svg">
<path d="M59.1396 80.1699H77.4496V120H59.1396V80.1699Z" fill="#C87D5E"/>
<path d="M77.4496 90.2299C75.8096 87.5699 73.6397 85.2999 70.8997 83.8199C69.1997 82.8999 67.3197 82.3699 65.4097 82.1799H62.2197C61.1797 82.2799 60.1396 82.4799 59.1396 82.7799V102.91C60.0296 101.55 61.5096 100.57 63.1096 100.19C65.8996 99.5399 68.8597 100.61 71.1197 102.36C73.3797 104.11 75.0697 106.49 76.7197 108.82L77.4596 109.86V90.2299H77.4496Z" fill="#874D36"/>
<path d="M24.9399 24.97C36.7999 24.97 46.4499 32.99 46.4499 42.86V90.46H3.41992V42.86C3.41992 32.99 13.0699 24.97 24.9399 24.97Z" fill="#4E342E"/>
<path d="M50.9697 90.1901H15.1297C12.9997 90.1901 11.1997 88.6201 10.9097 86.5101L5.86966 49.8801C5.81324 49.4676 5.84584 49.0478 5.96526 48.649C6.08468 48.2501 6.28814 47.8815 6.56196 47.5679C6.83578 47.2543 7.1736 47.0029 7.55269 46.8308C7.93177 46.6587 8.34333 46.5698 8.75966 46.5701H50.9697V90.1901Z" fill="white"/>
<path d="M93.5504 21.0901H24.9404C24.9404 21.0901 48.5204 23.9801 48.5204 43.8701L48.6404 94.3501H115.16C117.83 94.3501 119.99 92.1901 119.99 89.5201V47.5401C120 32.9301 108.16 21.0901 93.5504 21.0901Z" fill="#C55514"/>
<path d="M79.4705 30.0101L71.3305 30.2901L59.4805 48.4701V33.7201C59.4805 25.8401 51.4805 21.0801 51.4805 21.0801H82.6405L82.8005 21.2401C86.0705 24.3501 83.9805 29.8501 79.4705 30.0101Z" fill="#0D47A1"/>
<path d="M70.2103 59.22C74.7059 59.22 78.3503 55.119 78.3503 50.06C78.3503 45.0011 74.7059 40.9 70.2103 40.9C65.7147 40.9 62.0703 45.0011 62.0703 50.06C62.0703 55.119 65.7147 59.22 70.2103 59.22Z" fill="#0D47A1"/>
<path d="M62.8897 6.11L62.9197 47.67C62.9197 49.07 64.0497 50.2 65.4497 50.2H70.5597C71.9597 50.2 73.0897 49.07 73.0897 47.67V0H68.9897C68.1877 -1.07754e-06 67.3937 0.158111 66.653 0.46529C65.9122 0.772468 65.2393 1.22269 64.6728 1.79018C64.1062 2.35768 63.6571 3.03132 63.3511 3.77256C63.0452 4.5138 62.8883 5.30809 62.8897 6.11Z" fill="#C62828"/>
<path d="M65.1201 6.11L65.1501 47.67H73.3201V15.49H87.4001C90.6501 15.49 91.0301 14.08 91.0301 7.94C91.0301 1.8 90.6601 0 87.4101 0H71.2201C70.4182 -1.07754e-06 69.6242 0.158111 68.8834 0.46529C68.1427 0.772468 67.4698 1.22269 66.9032 1.79018C66.3367 2.35768 65.8875 3.03132 65.5816 3.77256C65.2756 4.5138 65.1188 5.30809 65.1201 6.11Z" fill="#F44336"/>
<path d="M70.3904 6.87998C70.3204 8.86998 69.0204 26.89 68.7904 30.27C68.5104 34.36 66.1504 34.78 66.1504 31.06V6.69998C66.1604 2.75998 70.5404 2.54998 70.3904 6.87998Z" fill="#FF7555"/>
<path d="M69.4 38.4399L69.47 56.7499H65.33C61.28 56.7499 58 52.6499 58 47.5899C58 42.5299 61.28 38.4299 65.33 38.4299C69.38 38.4299 69.4 38.4399 69.4 38.4399Z" fill="#82AEC0"/>
<path d="M69.4003 56.7499C73.4486 56.7499 76.7303 52.6489 76.7303 47.5899C76.7303 42.531 73.4486 38.4299 69.4003 38.4299C65.3521 38.4299 62.0703 42.531 62.0703 47.5899C62.0703 52.6489 65.3521 56.7499 69.4003 56.7499Z" fill="#E0E0E0"/>
<path d="M65.0205 47.86C65.4605 48.08 65.9905 47.84 66.3705 47.52C67.5305 46.55 67.9705 44.95 69.0405 43.89C69.9805 42.95 71.4105 42.03 70.2905 40.64C69.4805 39.64 68.1105 39.81 67.0405 40.27C64.6705 41.26 62.7905 46.74 65.0205 47.86Z" fill="white"/>
<path d="M24.94 25.2301C36.71 25.2301 46.29 33.1901 46.29 42.9801V90.2001H3.59V42.9701C3.59 33.1901 13.17 25.2301 24.94 25.2301ZM24.94 21.0901C9.81 21.0901 0 31.2801 0 43.8601V92.2101C0 93.3801 0.95 94.3401 2.13 94.3401H50.22C51.39 94.3401 52.35 93.3901 52.35 92.2101V43.8601C52.33 31.2801 40.07 21.0901 24.94 21.0901Z" fill="#C55514"/>
<path d="M13.6803 87.5C13.0903 87.19 13.5803 86.6 13.9103 86.06L27.2803 62.77L29.9103 64.37L15.0303 86.75C14.6503 87.33 14.2703 87.81 13.6803 87.5Z" fill="#6FBFF0" stroke="#C55514" stroke-miterlimit="10"/>
<path d="M35.8897 70.93L8.14966 49.63C7.80966 49.4 7.51966 48.98 7.86966 48.56C8.14966 48.22 8.40966 48.4 8.89966 48.69L35.7797 67.21C36.4597 67.63 37.3397 67.45 37.8097 66.81L45.8297 55.95L45.8097 60.82L39.0497 70.36C38.6987 70.845 38.1736 71.1752 37.5845 71.2815C36.9953 71.3878 36.3879 71.2618 35.8897 70.93Z" fill="#6FBFF0" stroke="#C55514" stroke-miterlimit="10"/>
</svg>
