<svg width="528" height="253" viewBox="0 0 528 253" fill="none" xmlns="http://www.w3.org/2000/svg">
<rect x="1" y="1" width="526" height="251.203" rx="10.5821" fill="white" stroke="#E4E4E7" stroke-width="0.661379"/>
<line x1="16.8394" y1="205.921" x2="510.501" y2="205.921" stroke="#F4F4F5" stroke-width="0.661379"/>
<line x1="16.8394" y1="175.286" x2="510.501" y2="175.286" stroke="#F4F4F5" stroke-width="0.661379"/>
<line x1="16.8394" y1="144.652" x2="510.501" y2="144.652" stroke="#F4F4F5" stroke-width="0.661379"/>
<line x1="16.8394" y1="114.017" x2="510.501" y2="114.017" stroke="#F4F4F5" stroke-width="0.661379"/>
<line x1="16.8394" y1="83.3826" x2="510.501" y2="83.3827" stroke="#F4F4F5" stroke-width="0.661379"/>
<mask id="mask0_1686_9891" style="mask-type:alpha" maskUnits="userSpaceOnUse" x="16" y="60" width="495" height="146">
<rect x="16.8394" y="60.7374" width="493.661" height="144.748" rx="10.5821" fill="white"/>
</mask>
<g mask="url(#mask0_1686_9891)">
<path d="M15.716 169.49C13.5702 170.562 11.5809 171.443 9.79362 172.16C4.89073 174.125 1 178.784 1 184.066V195.669C1 201.514 5.73774 206.252 11.582 206.252H509.158C515.003 206.252 519.74 201.514 519.74 195.67V118.38C519.74 108.755 507.167 103.573 498.664 108.083C492.933 111.122 487.116 112.777 482.337 111.284C467.621 106.689 451.065 107.455 440.028 111.284C428.991 115.114 422.247 120.475 409.983 121.241C397.72 122.007 401.399 118.177 382.391 115.88C363.382 113.582 355.411 135.792 346.214 141.919C337.016 148.046 313.716 146.514 305.131 141.919C296.547 137.324 289.189 135.792 282.444 135.792C275.699 135.792 275.699 141.153 265.889 141.919C256.078 142.685 246.267 135.026 232.778 135.792C219.288 136.558 200.893 151.109 186.79 151.875C172.687 152.641 181.271 148.046 161.037 146.514C140.802 144.982 124.86 164.895 111.983 169.49C99.1069 174.085 80.0987 164.129 69.6748 161.066C59.251 158.002 49.4403 169.49 41.4691 169.49C33.4979 169.49 24.9136 164.895 15.716 169.49Z" fill="#EEF2FF" fill-opacity="0.5" stroke="#4F46E5" stroke-width="1.32276"/>
<path d="M-32.9583 189.786H-43.9084C-49.7243 189.786 -54.438 194.5 -54.438 200.316C-54.438 206.132 -49.7233 210.847 -43.9074 210.847H507.013C511.855 210.847 515.78 206.922 515.78 202.08V144.119C515.78 142.625 513.689 142.362 513.431 143.834C513.095 145.748 507.054 150.726 504.034 148.429C501.013 146.131 494.636 145.748 491.28 146.897C487.924 148.046 488.595 145.748 482.218 143.834C475.842 141.919 473.828 148.046 470.472 149.195C467.115 150.343 462.081 148.046 459.732 145.748L459.631 145.65C457.295 143.364 454.243 140.376 445.971 139.621C437.581 138.856 435.903 150.726 432.547 154.939C429.19 159.151 421.471 156.853 419.457 156.087C417.444 155.322 415.766 152.641 409.389 154.939C403.012 157.236 396.971 165.278 389.252 165.661C381.532 166.044 374.82 159.917 369.45 159.917C364.08 159.917 365.758 161.066 358.375 162.98C350.991 164.895 338.237 159.917 333.874 158.002C329.511 156.087 323.806 158.002 320.785 159.917C317.765 161.831 307.025 162.214 304.004 161.066C300.984 159.917 292.257 157.236 290.244 159.917C288.23 162.597 279.168 158.002 276.483 158.002C273.798 158.002 275.141 155.322 268.093 153.79C261.045 152.258 256.346 159.917 254.332 161.066C252.319 162.214 248.627 160.3 245.271 158.002C241.914 155.705 228.154 153.407 220.099 155.322C212.044 157.236 211.373 162.98 206.003 163.746C200.633 164.512 198.284 169.873 195.599 169.873C192.914 169.873 191.236 169.873 188.886 168.341C186.537 166.81 180.832 168.341 178.482 169.873C176.133 171.405 172.105 172.171 167.407 172.554C162.708 172.937 160.023 169.49 156.331 168.341C152.64 167.193 147.605 166.427 138.208 166.81C128.811 167.193 129.146 174.085 119.413 176.766C109.68 179.446 102.632 176 95.9198 174.851C89.2074 173.702 83.5018 179.063 80.4812 180.978C77.4606 182.893 70.7483 180.978 64.0359 179.063C57.3235 177.149 54.6385 180.978 53.6316 180.978C52.6248 180.978 47.9261 185.956 42.5562 180.978C37.1863 176 34.8369 177.532 32.8232 177.532C30.8095 177.532 29.467 180.212 26.4464 179.063C23.4258 177.915 23.4258 174.468 18.3915 174.851C13.3572 175.234 9.66542 183.276 7.98732 184.424C6.30922 185.573 2.6174 187.105 -0.0675545 187.488C-2.75251 187.871 -2.75251 185.956 -10.8074 185.19C-18.8623 184.424 -23.561 189.786 -32.9583 189.786Z" fill="white" fill-opacity="0.04" stroke="#818CF8" stroke-width="1.32276"/>
</g>
<path d="M18.2131 230.037V223.632H22.2714V224.405H19.0557V226.478H21.9704V227.251H19.0557V230.037H18.2131ZM25.1208 230.14C24.6737 230.14 24.2753 230.034 23.9257 229.822C23.576 229.61 23.3009 229.321 23.1003 228.954C22.8996 228.581 22.7993 228.166 22.7993 227.707C22.7993 227.243 22.8968 226.83 23.0917 226.469C23.2923 226.108 23.5617 225.824 23.8999 225.618C24.2438 225.406 24.6278 225.3 25.052 225.3C25.3959 225.3 25.6997 225.363 25.9634 225.489C26.2328 225.609 26.4592 225.775 26.6426 225.987C26.8318 226.194 26.9751 226.432 27.0725 226.701C27.1757 226.965 27.2273 227.24 27.2273 227.527C27.2273 227.59 27.2215 227.661 27.2101 227.741C27.2043 227.816 27.1957 227.888 27.1843 227.956H23.384V227.269H26.72L26.3417 227.578C26.3933 227.28 26.3646 227.014 26.2557 226.778C26.1468 226.543 25.9863 226.357 25.7742 226.22C25.5621 226.082 25.3214 226.013 25.052 226.013C24.7826 226.013 24.5361 226.082 24.3126 226.22C24.089 226.357 23.9142 226.555 23.7881 226.813C23.6677 227.065 23.619 227.366 23.6419 227.716C23.619 228.054 23.6706 228.352 23.7967 228.61C23.9285 228.862 24.1119 229.06 24.347 229.203C24.5877 229.341 24.8485 229.409 25.1294 229.409C25.4389 229.409 25.6997 229.338 25.9118 229.195C26.1239 229.051 26.2958 228.868 26.4277 228.644L27.0983 228.988C27.0066 229.2 26.8633 229.395 26.6684 229.573C26.4792 229.745 26.2528 229.882 25.9892 229.986C25.7312 230.089 25.4418 230.14 25.1208 230.14ZM30.6686 230.14C30.2961 230.14 29.955 230.057 29.6455 229.891C29.3417 229.725 29.1067 229.49 28.9405 229.186L29.0522 229.048V230.037H28.2698V223.528H29.0694V226.4L28.9491 226.202C29.121 225.927 29.356 225.709 29.6541 225.549C29.9522 225.383 30.2932 225.3 30.6772 225.3C31.1129 225.3 31.5026 225.406 31.8466 225.618C32.1962 225.83 32.4713 226.119 32.672 226.486C32.8726 226.847 32.9729 227.26 32.9729 227.724C32.9729 228.177 32.8726 228.587 32.672 228.954C32.4713 229.321 32.1962 229.61 31.8466 229.822C31.5026 230.034 31.11 230.14 30.6686 230.14ZM30.6085 229.366C30.9008 229.366 31.1616 229.295 31.3909 229.152C31.6202 229.008 31.7978 228.813 31.9239 228.567C32.0558 228.315 32.1217 228.034 32.1217 227.724C32.1217 227.403 32.0558 227.122 31.9239 226.882C31.7978 226.635 31.6202 226.44 31.3909 226.297C31.1616 226.148 30.9008 226.073 30.6085 226.073C30.3161 226.073 30.0525 226.145 29.8175 226.288C29.5882 226.432 29.4048 226.629 29.2672 226.882C29.1354 227.128 29.0694 227.409 29.0694 227.724C29.0694 228.034 29.1354 228.315 29.2672 228.567C29.4048 228.813 29.5882 229.008 29.8175 229.152C30.0525 229.295 30.3161 229.366 30.6085 229.366Z" fill="#52525B"/>
<path d="M62.0381 230.037V223.632H62.8119L65.2107 227.045H64.8152L67.1969 223.632H67.9707V230.037H67.1195V224.698L67.4204 224.792L65.0388 228.146H64.97L62.6142 224.792L62.8807 224.698V230.037H62.0381ZM70.6573 230.14C70.3535 230.14 70.0841 230.086 69.849 229.977C69.6198 229.862 69.4392 229.708 69.3074 229.513C69.1755 229.312 69.1096 229.083 69.1096 228.825C69.1096 228.578 69.1612 228.358 69.2644 228.163C69.3733 227.962 69.5395 227.793 69.7631 227.655C69.9923 227.518 70.2789 227.42 70.6229 227.363L72.3424 227.079V227.75L70.8034 228.008C70.5054 228.06 70.2875 228.154 70.15 228.292C70.0181 228.429 69.9522 228.598 69.9522 228.799C69.9522 228.988 70.0267 229.146 70.1758 229.272C70.3305 229.398 70.5226 229.461 70.7518 229.461C71.0442 229.461 71.2964 229.401 71.5084 229.28C71.7263 229.154 71.8954 228.985 72.0157 228.773C72.1418 228.561 72.2049 228.326 72.2049 228.068V226.89C72.2049 226.638 72.1103 226.435 71.9211 226.28C71.7377 226.119 71.4941 226.039 71.1903 226.039C70.9267 226.039 70.6916 226.108 70.4853 226.245C70.2847 226.377 70.1356 226.555 70.0382 226.778L69.3418 226.417C69.4278 226.205 69.5653 226.016 69.7545 225.85C69.9436 225.678 70.1643 225.543 70.4165 225.446C70.6687 225.348 70.9324 225.3 71.2075 225.3C71.5629 225.3 71.8753 225.368 72.1447 225.506C72.4141 225.638 72.6233 225.824 72.7723 226.065C72.9271 226.3 73.0045 226.575 73.0045 226.89V230.037H72.2221V229.16L72.3682 229.212C72.2708 229.395 72.139 229.556 71.9727 229.693C71.8065 229.831 71.6116 229.94 71.3881 230.02C71.1645 230.1 70.9209 230.14 70.6573 230.14ZM74.2443 230.037V225.403H75.0267V226.254L74.9407 226.134C75.0496 225.87 75.2158 225.675 75.4394 225.549C75.6629 225.417 75.9352 225.351 76.2562 225.351H76.5399V226.108H76.1358C75.8091 226.108 75.5454 226.211 75.3448 226.417C75.1442 226.618 75.0439 226.905 75.0439 227.277V230.037H74.2443Z" fill="#52525B"/>
<path d="M106.206 230.037L108.502 223.632H109.499L111.795 230.037H110.892L110.368 228.532H107.634L107.109 230.037H106.206ZM107.9 227.759H110.101L108.88 224.242H109.121L107.9 227.759ZM112.508 231.757V225.403H113.29V226.4L113.187 226.202C113.359 225.927 113.594 225.709 113.892 225.549C114.19 225.383 114.531 225.3 114.915 225.3C115.351 225.3 115.74 225.406 116.084 225.618C116.434 225.83 116.709 226.119 116.91 226.486C117.11 226.847 117.211 227.26 117.211 227.724C117.211 228.177 117.11 228.587 116.91 228.954C116.709 229.321 116.434 229.61 116.084 229.822C115.74 230.034 115.348 230.14 114.906 230.14C114.534 230.14 114.193 230.057 113.883 229.891C113.579 229.725 113.344 229.49 113.178 229.186L113.307 229.048V231.757H112.508ZM114.846 229.366C115.139 229.366 115.399 229.295 115.629 229.152C115.858 229.008 116.036 228.813 116.162 228.567C116.294 228.315 116.359 228.034 116.359 227.724C116.359 227.403 116.294 227.122 116.162 226.882C116.036 226.635 115.858 226.44 115.629 226.297C115.399 226.148 115.139 226.073 114.846 226.073C114.554 226.073 114.29 226.145 114.055 226.288C113.826 226.432 113.643 226.629 113.505 226.882C113.373 227.128 113.307 227.409 113.307 227.724C113.307 228.034 113.373 228.315 113.505 228.567C113.643 228.813 113.826 229.008 114.055 229.152C114.29 229.295 114.554 229.366 114.846 229.366ZM110.992 244.037V239.403H111.774V240.254L111.688 240.134C111.797 239.87 111.964 239.675 112.187 239.549C112.411 239.417 112.683 239.351 113.004 239.351H113.288V240.108H112.884C112.557 240.108 112.293 240.211 112.093 240.417C111.892 240.618 111.792 240.905 111.792 241.277V244.037H110.992Z" fill="#52525B"/>
<path d="M147.621 230.037V223.632H148.395L150.794 227.045H150.398L152.78 223.632H153.554V230.037H152.703V224.698L153.004 224.792L150.622 228.146H150.553L148.197 224.792L148.464 224.698V230.037H147.621ZM156.24 230.14C155.937 230.14 155.667 230.086 155.432 229.977C155.203 229.862 155.022 229.708 154.891 229.513C154.759 229.312 154.693 229.083 154.693 228.825C154.693 228.578 154.744 228.358 154.848 228.163C154.956 227.962 155.123 227.793 155.346 227.655C155.575 227.518 155.862 227.42 156.206 227.363L157.926 227.079V227.75L156.387 228.008C156.088 228.06 155.871 228.154 155.733 228.292C155.601 228.429 155.535 228.598 155.535 228.799C155.535 228.988 155.61 229.146 155.759 229.272C155.914 229.398 156.106 229.461 156.335 229.461C156.627 229.461 156.88 229.401 157.092 229.28C157.309 229.154 157.478 228.985 157.599 228.773C157.725 228.561 157.788 228.326 157.788 228.068V226.89C157.788 226.638 157.693 226.435 157.504 226.28C157.321 226.119 157.077 226.039 156.773 226.039C156.51 226.039 156.275 226.108 156.068 226.245C155.868 226.377 155.719 226.555 155.621 226.778L154.925 226.417C155.011 226.205 155.148 226.016 155.338 225.85C155.527 225.678 155.747 225.543 156 225.446C156.252 225.348 156.516 225.3 156.791 225.3C157.146 225.3 157.458 225.368 157.728 225.506C157.997 225.638 158.206 225.824 158.355 226.065C158.51 226.3 158.588 226.575 158.588 226.89V230.037H157.805V229.16L157.951 229.212C157.854 229.395 157.722 229.556 157.556 229.693C157.39 229.831 157.195 229.94 156.971 230.02C156.748 230.1 156.504 230.14 156.24 230.14ZM160.077 231.929C159.974 231.929 159.87 231.92 159.767 231.903C159.664 231.891 159.567 231.866 159.475 231.825V231.112C159.538 231.118 159.615 231.129 159.707 231.146C159.804 231.163 159.899 231.172 159.991 231.172C160.26 231.172 160.464 231.112 160.601 230.991C160.745 230.871 160.879 230.668 161.005 230.381L161.298 229.685L161.28 230.381L159.303 225.403H160.171L161.71 229.358H161.452L162.983 225.403H163.868L161.779 230.587C161.682 230.834 161.556 231.06 161.401 231.267C161.252 231.473 161.068 231.633 160.851 231.748C160.633 231.868 160.375 231.929 160.077 231.929Z" fill="#52525B"/>
<path d="M192.447 230.037V229.22H192.799C193.103 229.22 193.344 229.131 193.522 228.954C193.699 228.77 193.788 228.524 193.788 228.214V223.632H194.639V228.197C194.639 228.57 194.562 228.894 194.407 229.169C194.258 229.444 194.046 229.659 193.771 229.814C193.496 229.963 193.172 230.037 192.799 230.037H192.447ZM197.595 230.14C197.262 230.14 196.961 230.063 196.692 229.908C196.428 229.753 196.222 229.538 196.073 229.263C195.93 228.982 195.858 228.661 195.858 228.3V225.403H196.658V228.214C196.658 228.444 196.703 228.644 196.795 228.816C196.893 228.988 197.024 229.123 197.191 229.22C197.363 229.318 197.557 229.366 197.775 229.366C197.993 229.366 198.185 229.318 198.351 229.22C198.523 229.123 198.655 228.982 198.747 228.799C198.844 228.616 198.893 228.398 198.893 228.146V225.403H199.701V230.037H198.919V229.134L199.048 229.212C198.939 229.504 198.753 229.733 198.489 229.9C198.231 230.06 197.933 230.14 197.595 230.14ZM200.94 230.037V225.403H201.722V226.306L201.593 226.228C201.708 225.936 201.891 225.709 202.144 225.549C202.402 225.383 202.703 225.3 203.046 225.3C203.379 225.3 203.674 225.374 203.932 225.523C204.196 225.672 204.402 225.879 204.551 226.142C204.706 226.406 204.783 226.704 204.783 227.036V230.037H203.975V227.294C203.975 227.036 203.929 226.819 203.837 226.641C203.746 226.463 203.614 226.326 203.442 226.228C203.276 226.125 203.084 226.073 202.866 226.073C202.648 226.073 202.453 226.125 202.281 226.228C202.115 226.326 201.983 226.466 201.886 226.65C201.788 226.827 201.74 227.042 201.74 227.294V230.037H200.94Z" fill="#52525B"/>
<path d="M232.529 230.037V229.22H232.881C233.185 229.22 233.426 229.131 233.603 228.954C233.781 228.77 233.87 228.524 233.87 228.214V223.632H234.721V228.197C234.721 228.57 234.644 228.894 234.489 229.169C234.34 229.444 234.128 229.659 233.853 229.814C233.578 229.963 233.254 230.037 232.881 230.037H232.529ZM237.677 230.14C237.344 230.14 237.043 230.063 236.774 229.908C236.51 229.753 236.304 229.538 236.155 229.263C236.012 228.982 235.94 228.661 235.94 228.3V225.403H236.739V228.214C236.739 228.444 236.785 228.644 236.877 228.816C236.974 228.988 237.106 229.123 237.273 229.22C237.445 229.318 237.639 229.366 237.857 229.366C238.075 229.366 238.267 229.318 238.433 229.22C238.605 229.123 238.737 228.982 238.829 228.799C238.926 228.616 238.975 228.398 238.975 228.146V225.403H239.783V230.037H239.001V229.134L239.13 229.212C239.021 229.504 238.835 229.733 238.571 229.9C238.313 230.06 238.015 230.14 237.677 230.14ZM241.022 230.037V223.528H241.822V230.037H241.022Z" fill="#52525B"/>
<path d="M270.44 230.037L272.736 223.632H273.733L276.029 230.037H275.126L274.602 228.532H271.868L271.343 230.037H270.44ZM272.134 227.759H274.335L273.114 224.242H273.355L272.134 227.759ZM278.3 230.14C277.967 230.14 277.666 230.063 277.397 229.908C277.133 229.753 276.927 229.538 276.778 229.263C276.635 228.982 276.563 228.661 276.563 228.3V225.403H277.363V228.214C277.363 228.444 277.409 228.644 277.5 228.816C277.598 228.988 277.729 229.123 277.896 229.22C278.068 229.318 278.263 229.366 278.48 229.366C278.698 229.366 278.89 229.318 279.056 229.22C279.228 229.123 279.36 228.982 279.452 228.799C279.549 228.616 279.598 228.398 279.598 228.146V225.403H280.406V230.037H279.624V229.134L279.753 229.212C279.644 229.504 279.458 229.733 279.194 229.9C278.936 230.06 278.638 230.14 278.3 230.14ZM283.855 231.929C283.528 231.929 283.224 231.877 282.943 231.774C282.668 231.671 282.43 231.527 282.23 231.344C282.035 231.166 281.886 230.957 281.783 230.716L282.531 230.372C282.611 230.59 282.763 230.774 282.986 230.923C283.216 231.077 283.502 231.155 283.846 231.155C284.11 231.155 284.348 231.103 284.56 231C284.778 230.903 284.95 230.754 285.076 230.553C285.202 230.358 285.265 230.12 285.265 229.839V228.799L285.411 228.954C285.25 229.269 285.018 229.51 284.715 229.676C284.416 229.842 284.087 229.925 283.726 229.925C283.29 229.925 282.9 229.825 282.556 229.624C282.213 229.418 281.943 229.14 281.748 228.79C281.553 228.435 281.456 228.042 281.456 227.612C281.456 227.177 281.553 226.784 281.748 226.435C281.943 226.085 282.21 225.81 282.548 225.609C282.892 225.403 283.282 225.3 283.717 225.3C284.078 225.3 284.405 225.383 284.697 225.549C284.995 225.709 285.233 225.933 285.411 226.22L285.291 226.435V225.403H286.073V229.839C286.073 230.241 285.978 230.599 285.789 230.914C285.6 231.229 285.336 231.476 284.998 231.654C284.666 231.837 284.285 231.929 283.855 231.929ZM283.795 229.152C284.07 229.152 284.316 229.083 284.534 228.945C284.758 228.808 284.935 228.624 285.067 228.395C285.199 228.16 285.265 227.899 285.265 227.612C285.265 227.332 285.199 227.074 285.067 226.839C284.935 226.604 284.758 226.417 284.534 226.28C284.316 226.142 284.07 226.073 283.795 226.073C283.514 226.073 283.259 226.142 283.029 226.28C282.8 226.417 282.62 226.604 282.488 226.839C282.362 227.068 282.299 227.326 282.299 227.612C282.299 227.899 282.362 228.16 282.488 228.395C282.62 228.624 282.797 228.808 283.021 228.945C283.25 229.083 283.508 229.152 283.795 229.152Z" fill="#52525B"/>
<path d="M317.687 230.14C317.28 230.14 316.907 230.066 316.569 229.917C316.231 229.762 315.944 229.553 315.709 229.289C315.474 229.025 315.305 228.73 315.202 228.404L315.933 228.103C316.088 228.515 316.317 228.833 316.621 229.057C316.93 229.275 317.291 229.384 317.704 229.384C317.956 229.384 318.177 229.344 318.366 229.263C318.555 229.183 318.702 229.071 318.805 228.928C318.914 228.779 318.968 228.607 318.968 228.412C318.968 228.143 318.891 227.931 318.736 227.776C318.587 227.615 318.366 227.495 318.074 227.415L316.896 227.054C316.432 226.91 316.076 226.684 315.83 226.374C315.583 226.065 315.46 225.709 315.46 225.308C315.46 224.959 315.543 224.652 315.709 224.388C315.881 224.119 316.116 223.91 316.415 223.761C316.718 223.606 317.062 223.528 317.446 223.528C317.83 223.528 318.177 223.597 318.487 223.735C318.802 223.872 319.068 224.059 319.286 224.294C319.504 224.523 319.665 224.787 319.768 225.085L319.045 225.386C318.908 225.025 318.702 224.752 318.426 224.569C318.151 224.38 317.827 224.285 317.455 224.285C317.226 224.285 317.022 224.325 316.844 224.405C316.672 224.48 316.538 224.592 316.44 224.741C316.349 224.884 316.303 225.056 316.303 225.257C316.303 225.492 316.377 225.701 316.526 225.884C316.675 226.068 316.902 226.208 317.206 226.306L318.28 226.624C318.785 226.778 319.166 226.999 319.424 227.286C319.682 227.572 319.811 227.928 319.811 228.352C319.811 228.702 319.719 229.011 319.536 229.28C319.358 229.55 319.109 229.762 318.788 229.917C318.472 230.066 318.105 230.14 317.687 230.14ZM323.082 230.14C322.635 230.14 322.237 230.034 321.887 229.822C321.537 229.61 321.262 229.321 321.062 228.954C320.861 228.581 320.761 228.166 320.761 227.707C320.761 227.243 320.858 226.83 321.053 226.469C321.254 226.108 321.523 225.824 321.861 225.618C322.205 225.406 322.589 225.3 323.013 225.3C323.357 225.3 323.661 225.363 323.925 225.489C324.194 225.609 324.42 225.775 324.604 225.987C324.793 226.194 324.936 226.432 325.034 226.701C325.137 226.965 325.189 227.24 325.189 227.527C325.189 227.59 325.183 227.661 325.171 227.741C325.166 227.816 325.157 227.888 325.146 227.956H321.345V227.269H324.681L324.303 227.578C324.355 227.28 324.326 227.014 324.217 226.778C324.108 226.543 323.948 226.357 323.736 226.22C323.523 226.082 323.283 226.013 323.013 226.013C322.744 226.013 322.497 226.082 322.274 226.22C322.05 226.357 321.875 226.555 321.749 226.813C321.629 227.065 321.58 227.366 321.603 227.716C321.58 228.054 321.632 228.352 321.758 228.61C321.89 228.862 322.073 229.06 322.308 229.203C322.549 229.341 322.81 229.409 323.091 229.409C323.4 229.409 323.661 229.338 323.873 229.195C324.085 229.051 324.257 228.868 324.389 228.644L325.06 228.988C324.968 229.2 324.825 229.395 324.63 229.573C324.441 229.745 324.214 229.882 323.95 229.986C323.693 230.089 323.403 230.14 323.082 230.14ZM326.231 231.757V225.403H327.014V226.4L326.91 226.202C327.082 225.927 327.317 225.709 327.615 225.549C327.913 225.383 328.254 225.3 328.639 225.3C329.074 225.3 329.464 225.406 329.808 225.618C330.158 225.83 330.433 226.119 330.633 226.486C330.834 226.847 330.934 227.26 330.934 227.724C330.934 228.177 330.834 228.587 330.633 228.954C330.433 229.321 330.158 229.61 329.808 229.822C329.464 230.034 329.071 230.14 328.63 230.14C328.257 230.14 327.916 230.057 327.607 229.891C327.303 229.725 327.068 229.49 326.902 229.186L327.031 229.048V231.757H326.231ZM328.57 229.366C328.862 229.366 329.123 229.295 329.352 229.152C329.581 229.008 329.759 228.813 329.885 228.567C330.017 228.315 330.083 228.034 330.083 227.724C330.083 227.403 330.017 227.122 329.885 226.882C329.759 226.635 329.581 226.44 329.352 226.297C329.123 226.148 328.862 226.073 328.57 226.073C328.277 226.073 328.014 226.145 327.779 226.288C327.549 226.432 327.366 226.629 327.228 226.882C327.097 227.128 327.031 227.409 327.031 227.724C327.031 228.034 327.097 228.315 327.228 228.567C327.366 228.813 327.549 229.008 327.779 229.152C328.014 229.295 328.277 229.366 328.57 229.366Z" fill="#52525B"/>
<path d="M363.321 230.14C362.869 230.14 362.444 230.06 362.049 229.9C361.653 229.733 361.307 229.501 361.009 229.203C360.716 228.905 360.487 228.555 360.321 228.154C360.155 227.747 360.071 227.306 360.071 226.83C360.071 226.349 360.155 225.907 360.321 225.506C360.487 225.105 360.716 224.755 361.009 224.457C361.307 224.159 361.651 223.93 362.04 223.769C362.436 223.609 362.863 223.528 363.321 223.528C363.78 223.528 364.204 223.612 364.594 223.778C364.989 223.938 365.333 224.168 365.626 224.466C365.924 224.758 366.156 225.105 366.322 225.506C366.494 225.907 366.58 226.349 366.58 226.83C366.58 227.306 366.494 227.747 366.322 228.154C366.156 228.555 365.924 228.905 365.626 229.203C365.333 229.501 364.989 229.733 364.594 229.9C364.204 230.06 363.78 230.14 363.321 230.14ZM363.321 229.358C363.677 229.358 364.001 229.295 364.293 229.169C364.585 229.037 364.838 228.856 365.05 228.627C365.267 228.392 365.434 228.123 365.548 227.819C365.669 227.509 365.729 227.18 365.729 226.83C365.729 226.48 365.669 226.154 365.548 225.85C365.434 225.546 365.267 225.28 365.05 225.05C364.838 224.815 364.585 224.635 364.293 224.509C364.001 224.377 363.677 224.311 363.321 224.311C362.972 224.311 362.651 224.377 362.358 224.509C362.066 224.635 361.811 224.815 361.593 225.05C361.381 225.28 361.215 225.546 361.095 225.85C360.974 226.154 360.914 226.48 360.914 226.83C360.914 227.18 360.974 227.509 361.095 227.819C361.215 228.123 361.381 228.392 361.593 228.627C361.811 228.856 362.066 229.037 362.358 229.169C362.651 229.295 362.972 229.358 363.321 229.358ZM369.864 230.14C369.411 230.14 369.007 230.034 368.652 229.822C368.302 229.61 368.027 229.321 367.826 228.954C367.626 228.587 367.525 228.174 367.525 227.716C367.525 227.251 367.626 226.839 367.826 226.478C368.027 226.116 368.302 225.83 368.652 225.618C369.007 225.406 369.411 225.3 369.864 225.3C370.168 225.3 370.451 225.354 370.715 225.463C370.979 225.572 371.211 225.718 371.411 225.902C371.612 226.085 371.758 226.3 371.85 226.546L371.136 226.89C371.027 226.65 370.861 226.455 370.638 226.306C370.414 226.151 370.156 226.073 369.864 226.073C369.583 226.073 369.328 226.145 369.099 226.288C368.875 226.432 368.697 226.627 368.566 226.873C368.434 227.12 368.368 227.403 368.368 227.724C368.368 228.034 368.434 228.315 368.566 228.567C368.697 228.813 368.875 229.008 369.099 229.152C369.328 229.295 369.583 229.366 369.864 229.366C370.156 229.366 370.414 229.292 370.638 229.143C370.861 228.988 371.027 228.785 371.136 228.532L371.85 228.894C371.758 229.134 371.612 229.349 371.411 229.538C371.211 229.722 370.979 229.868 370.715 229.977C370.451 230.086 370.168 230.14 369.864 230.14ZM374.778 230.089C374.325 230.089 373.975 229.96 373.729 229.702C373.488 229.444 373.368 229.08 373.368 228.61V226.168H372.525V225.403H372.697C372.904 225.403 373.067 225.34 373.187 225.214C373.308 225.088 373.368 224.921 373.368 224.715V224.337H374.167V225.403H375.208V226.168H374.167V228.584C374.167 228.739 374.19 228.874 374.236 228.988C374.288 229.103 374.371 229.195 374.486 229.263C374.6 229.326 374.752 229.358 374.941 229.358C374.981 229.358 375.03 229.355 375.087 229.349C375.15 229.344 375.208 229.338 375.259 229.332V230.037C375.185 230.054 375.102 230.066 375.01 230.072C374.918 230.083 374.841 230.089 374.778 230.089Z" fill="#52525B"/>
<path d="M404.311 230.037V223.632H405.016L408.696 228.808L408.378 228.842V223.632H409.229V230.037H408.524L404.861 224.827L405.154 224.792V230.037H404.311ZM412.765 230.14C412.318 230.14 411.914 230.037 411.553 229.831C411.192 229.619 410.905 229.329 410.693 228.962C410.481 228.596 410.375 228.18 410.375 227.716C410.375 227.251 410.478 226.839 410.684 226.478C410.896 226.116 411.183 225.83 411.544 225.618C411.905 225.406 412.312 225.3 412.765 225.3C413.212 225.3 413.616 225.406 413.977 225.618C414.339 225.824 414.622 226.108 414.829 226.469C415.041 226.83 415.147 227.246 415.147 227.716C415.147 228.186 415.038 228.604 414.82 228.971C414.602 229.332 414.313 229.619 413.952 229.831C413.596 230.037 413.201 230.14 412.765 230.14ZM412.765 229.366C413.052 229.366 413.31 229.295 413.539 229.152C413.774 229.008 413.957 228.81 414.089 228.558C414.227 228.306 414.296 228.025 414.296 227.716C414.296 227.4 414.227 227.122 414.089 226.882C413.957 226.635 413.774 226.44 413.539 226.297C413.31 226.148 413.052 226.073 412.765 226.073C412.473 226.073 412.209 226.148 411.974 226.297C411.745 226.44 411.561 226.635 411.424 226.882C411.286 227.122 411.217 227.4 411.217 227.716C411.217 228.025 411.286 228.306 411.424 228.558C411.561 228.81 411.745 229.008 411.974 229.152C412.209 229.295 412.473 229.366 412.765 229.366ZM417.395 230.037L415.581 225.403H416.475L417.928 229.323H417.619L419.081 225.403H419.975L418.152 230.037H417.395Z" fill="#52525B"/>
<path d="M448.679 230.037V223.632H450.777C451.424 223.632 451.989 223.763 452.47 224.027C452.952 224.291 453.324 224.663 453.588 225.145C453.852 225.621 453.984 226.182 453.984 226.83C453.984 227.472 453.852 228.034 453.588 228.515C453.324 228.997 452.952 229.372 452.47 229.642C451.989 229.905 451.424 230.037 450.777 230.037H448.679ZM449.521 229.263H450.785C451.261 229.263 451.671 229.163 452.015 228.962C452.364 228.762 452.634 228.481 452.823 228.12C453.012 227.753 453.107 227.323 453.107 226.83C453.107 226.331 453.009 225.902 452.814 225.54C452.625 225.179 452.356 224.901 452.006 224.706C451.662 224.506 451.255 224.405 450.785 224.405H449.521V229.263ZM457.089 230.14C456.642 230.14 456.244 230.034 455.894 229.822C455.544 229.61 455.269 229.321 455.069 228.954C454.868 228.581 454.768 228.166 454.768 227.707C454.768 227.243 454.865 226.83 455.06 226.469C455.261 226.108 455.53 225.824 455.868 225.618C456.212 225.406 456.596 225.3 457.02 225.3C457.364 225.3 457.668 225.363 457.932 225.489C458.201 225.609 458.428 225.775 458.611 225.987C458.8 226.194 458.944 226.432 459.041 226.701C459.144 226.965 459.196 227.24 459.196 227.527C459.196 227.59 459.19 227.661 459.179 227.741C459.173 227.816 459.164 227.888 459.153 227.956H455.352V227.269H458.688L458.31 227.578C458.362 227.28 458.333 227.014 458.224 226.778C458.115 226.543 457.955 226.357 457.743 226.22C457.531 226.082 457.29 226.013 457.02 226.013C456.751 226.013 456.505 226.082 456.281 226.22C456.057 226.357 455.883 226.555 455.757 226.813C455.636 227.065 455.587 227.366 455.61 227.716C455.587 228.054 455.639 228.352 455.765 228.61C455.897 228.862 456.08 229.06 456.315 229.203C456.556 229.341 456.817 229.409 457.098 229.409C457.407 229.409 457.668 229.338 457.88 229.195C458.092 229.051 458.264 228.868 458.396 228.644L459.067 228.988C458.975 229.2 458.832 229.395 458.637 229.573C458.448 229.745 458.221 229.882 457.958 229.986C457.7 230.089 457.41 230.14 457.089 230.14ZM462.388 230.14C461.935 230.14 461.531 230.034 461.175 229.822C460.826 229.61 460.551 229.321 460.35 228.954C460.149 228.587 460.049 228.174 460.049 227.716C460.049 227.251 460.149 226.839 460.35 226.478C460.551 226.116 460.826 225.83 461.175 225.618C461.531 225.406 461.935 225.3 462.388 225.3C462.692 225.3 462.975 225.354 463.239 225.463C463.503 225.572 463.735 225.718 463.935 225.902C464.136 226.085 464.282 226.3 464.374 226.546L463.66 226.89C463.551 226.65 463.385 226.455 463.162 226.306C462.938 226.151 462.68 226.073 462.388 226.073C462.107 226.073 461.852 226.145 461.623 226.288C461.399 226.432 461.221 226.627 461.089 226.873C460.958 227.12 460.892 227.403 460.892 227.724C460.892 228.034 460.958 228.315 461.089 228.567C461.221 228.813 461.399 229.008 461.623 229.152C461.852 229.295 462.107 229.366 462.388 229.366C462.68 229.366 462.938 229.292 463.162 229.143C463.385 228.988 463.551 228.785 463.66 228.532L464.374 228.894C464.282 229.134 464.136 229.349 463.935 229.538C463.735 229.722 463.503 229.868 463.239 229.977C462.975 230.086 462.692 230.14 462.388 230.14Z" fill="#52525B"/>
<path d="M493.416 230.037V229.22H493.769C494.072 229.22 494.313 229.131 494.491 228.954C494.668 228.77 494.757 228.524 494.757 228.214V223.632H495.608V228.197C495.608 228.57 495.531 228.894 495.376 229.169C495.227 229.444 495.015 229.659 494.74 229.814C494.465 229.963 494.141 230.037 493.769 230.037H493.416ZM498.28 230.14C497.976 230.14 497.707 230.086 497.472 229.977C497.243 229.862 497.062 229.708 496.93 229.513C496.799 229.312 496.733 229.083 496.733 228.825C496.733 228.578 496.784 228.358 496.887 228.163C496.996 227.962 497.162 227.793 497.386 227.655C497.615 227.518 497.902 227.42 498.246 227.363L499.965 227.079V227.75L498.426 228.008C498.128 228.06 497.911 228.154 497.773 228.292C497.641 228.429 497.575 228.598 497.575 228.799C497.575 228.988 497.65 229.146 497.799 229.272C497.954 229.398 498.146 229.461 498.375 229.461C498.667 229.461 498.919 229.401 499.131 229.28C499.349 229.154 499.518 228.985 499.639 228.773C499.765 228.561 499.828 228.326 499.828 228.068V226.89C499.828 226.638 499.733 226.435 499.544 226.28C499.361 226.119 499.117 226.039 498.813 226.039C498.55 226.039 498.315 226.108 498.108 226.245C497.908 226.377 497.759 226.555 497.661 226.778L496.965 226.417C497.051 226.205 497.188 226.016 497.377 225.85C497.567 225.678 497.787 225.543 498.039 225.446C498.292 225.348 498.555 225.3 498.83 225.3C499.186 225.3 499.498 225.368 499.768 225.506C500.037 225.638 500.246 225.824 500.395 226.065C500.55 226.3 500.627 226.575 500.627 226.89V230.037H499.845V229.16L499.991 229.212C499.894 229.395 499.762 229.556 499.596 229.693C499.429 229.831 499.235 229.94 499.011 230.02C498.788 230.1 498.544 230.14 498.28 230.14ZM501.867 230.037V225.403H502.65V226.306L502.521 226.228C502.635 225.936 502.819 225.709 503.071 225.549C503.329 225.383 503.63 225.3 503.974 225.3C504.306 225.3 504.601 225.374 504.859 225.523C505.123 225.672 505.329 225.879 505.478 226.142C505.633 226.406 505.711 226.704 505.711 227.036V230.037H504.902V227.294C504.902 227.036 504.856 226.819 504.765 226.641C504.673 226.463 504.541 226.326 504.369 226.228C504.203 226.125 504.011 226.073 503.793 226.073C503.575 226.073 503.38 226.125 503.209 226.228C503.042 226.326 502.91 226.466 502.813 226.65C502.716 226.827 502.667 227.042 502.667 227.294V230.037H501.867Z" fill="#52525B"/>
<line x1="198.003" y1="150.344" x2="198.003" y2="205.486" stroke="#E4E4E7" stroke-width="0.661379"/>
<path d="M197.672 151.005C199.949 151.005 201.634 148.899 201.634 146.514C201.634 144.13 199.949 142.023 197.672 142.023C195.396 142.023 193.711 144.13 193.711 146.514C193.711 148.899 195.396 151.005 197.672 151.005Z" fill="#4F46E5" stroke="white" stroke-width="1.32276"/>
<path d="M18.2609 28.3173V20.4337H23.4991V21.7035H19.7001V23.7247H23.2874V24.9945H19.7001V27.0474H23.4991V28.3173H18.2609ZM24.438 28.3173V22.5606H25.7396V23.894L25.5914 23.6718C25.6972 23.2555 25.9089 22.9451 26.2263 22.7405C26.5438 22.536 26.9177 22.4337 27.348 22.4337C27.8207 22.4337 28.2369 22.5571 28.5967 22.804C28.9565 23.051 29.1893 23.3755 29.2951 23.7776L28.9036 23.8093C29.08 23.3508 29.3445 23.0086 29.6972 22.7829C30.05 22.5501 30.4556 22.4337 30.9142 22.4337C31.3234 22.4337 31.6867 22.5254 32.0041 22.7088C32.3287 22.8922 32.5826 23.1497 32.766 23.4813C32.9495 23.8058 33.0412 24.1832 33.0412 24.6136V28.3173H31.6549V24.9416C31.6549 24.6876 31.6091 24.4689 31.5174 24.2855C31.4257 24.1021 31.2987 23.961 31.1364 23.8622C30.9742 23.7564 30.7766 23.7035 30.5438 23.7035C30.3251 23.7035 30.1311 23.7564 29.9618 23.8622C29.7925 23.961 29.662 24.1021 29.5703 24.2855C29.4786 24.4689 29.4327 24.6876 29.4327 24.9416V28.3173H28.0464V24.9416C28.0464 24.6876 28.0006 24.4689 27.9089 24.2855C27.8172 24.1021 27.6867 23.961 27.5173 23.8622C27.3551 23.7564 27.1611 23.7035 26.9353 23.7035C26.7166 23.7035 26.5226 23.7564 26.3533 23.8622C26.184 23.961 26.0535 24.1021 25.9618 24.2855C25.8701 24.4689 25.8242 24.6876 25.8242 24.9416V28.3173H24.438ZM34.214 30.4337V22.5606H35.5156V23.7035L35.3886 23.4178C35.5861 23.1074 35.8542 22.8675 36.1928 22.6982C36.5314 22.5218 36.923 22.4337 37.3674 22.4337C37.9106 22.4337 38.4009 22.5677 38.8383 22.8358C39.2757 23.1039 39.6214 23.4637 39.8754 23.9152C40.1364 24.3667 40.2669 24.8746 40.2669 25.439C40.2669 25.9963 40.1399 26.5042 39.886 26.9628C39.632 27.4213 39.2863 27.7847 38.8489 28.0527C38.4115 28.3138 37.9142 28.4443 37.3568 28.4443C36.9406 28.4443 36.5561 28.3631 36.2034 28.2009C35.8577 28.0316 35.5826 27.7917 35.378 27.4813L35.6002 27.2062V30.4337H34.214ZM37.1981 27.1744C37.5156 27.1744 37.7978 27.1004 38.0447 26.9522C38.2916 26.8041 38.4821 26.5995 38.6161 26.3384C38.7572 26.0774 38.8278 25.7776 38.8278 25.439C38.8278 25.1003 38.7572 24.804 38.6161 24.5501C38.4821 24.2891 38.2916 24.0845 38.0447 23.9363C37.7978 23.7811 37.5156 23.7035 37.1981 23.7035C36.8948 23.7035 36.6196 23.7776 36.3727 23.9257C36.1329 24.0739 35.9424 24.282 35.8013 24.5501C35.6672 24.8111 35.6002 25.1074 35.6002 25.439C35.6002 25.7776 35.6672 26.0774 35.8013 26.3384C35.9424 26.5995 36.1329 26.8041 36.3727 26.9522C36.6196 27.1004 36.8948 27.1744 37.1981 27.1744ZM41.3238 28.3173V20.3067H42.71V28.3173H41.3238ZM46.8048 28.4443C46.2404 28.4443 45.7254 28.3138 45.2598 28.0527C44.8013 27.7917 44.4344 27.4355 44.1593 26.984C43.8912 26.5324 43.7572 26.0175 43.7572 25.439C43.7572 24.8605 43.8912 24.3455 44.1593 23.894C44.4344 23.4425 44.8013 23.0862 45.2598 22.8252C45.7184 22.5642 46.2334 22.4337 46.8048 22.4337C47.3692 22.4337 47.8807 22.5642 48.3392 22.8252C48.7978 23.0862 49.1611 23.4425 49.4292 23.894C49.7043 24.3384 49.8419 24.8534 49.8419 25.439C49.8419 26.0175 49.7043 26.5324 49.4292 26.984C49.154 27.4355 48.7872 27.7917 48.3286 28.0527C47.8701 28.3138 47.3621 28.4443 46.8048 28.4443ZM46.8048 27.1744C47.1152 27.1744 47.3868 27.1004 47.6196 26.9522C47.8595 26.8041 48.0464 26.5995 48.1805 26.3384C48.3216 26.0704 48.3921 25.7705 48.3921 25.439C48.3921 25.1003 48.3216 24.804 48.1805 24.5501C48.0464 24.2891 47.8595 24.0845 47.6196 23.9363C47.3868 23.7811 47.1152 23.7035 46.8048 23.7035C46.4873 23.7035 46.2087 23.7811 45.9688 23.9363C45.729 24.0845 45.5385 24.2891 45.3974 24.5501C45.2634 24.804 45.1963 25.1003 45.1963 25.439C45.1963 25.7705 45.2634 26.0704 45.3974 26.3384C45.5385 26.5995 45.729 26.8041 45.9688 26.9522C46.2087 27.1004 46.4873 27.1744 46.8048 27.1744ZM51.4882 30.6559C51.333 30.6559 51.1813 30.6418 51.0332 30.6136C50.885 30.5924 50.751 30.5536 50.6311 30.4972V29.3332C50.7228 29.3543 50.8321 29.3755 50.9591 29.3967C51.0931 29.4178 51.2166 29.4284 51.3295 29.4284C51.6469 29.4284 51.8762 29.3543 52.0173 29.2062C52.1654 29.058 52.296 28.864 52.4088 28.6242L52.7898 27.7353L52.7686 28.8993L50.2607 22.5606H51.7527L53.5094 27.2379H52.9803L54.7263 22.5606H56.229L53.721 28.8993C53.5729 29.2732 53.393 29.5907 53.1813 29.8517C52.9697 30.1127 52.7228 30.3102 52.4406 30.4443C52.1654 30.5854 51.848 30.6559 51.4882 30.6559ZM59.617 28.4443C59.0244 28.4443 58.5059 28.3102 58.0615 28.0422C57.617 27.7741 57.2714 27.4108 57.0244 26.9522C56.7775 26.4936 56.6541 25.9857 56.6541 25.4284C56.6541 24.8499 56.7775 24.3384 57.0244 23.894C57.2784 23.4425 57.6206 23.0862 58.0509 22.8252C58.4883 22.5642 58.9751 22.4337 59.5112 22.4337C59.9627 22.4337 60.3578 22.5077 60.6964 22.6559C61.0421 22.804 61.3349 23.0086 61.5747 23.2696C61.8146 23.5307 61.998 23.8305 62.125 24.1691C62.252 24.5007 62.3155 24.8605 62.3155 25.2485C62.3155 25.3473 62.3084 25.4496 62.2943 25.5554C62.2872 25.6612 62.2696 25.7529 62.2414 25.8305H57.7969V24.7723H61.4583L60.8022 25.2697C60.8657 24.9451 60.8481 24.6559 60.7493 24.4019C60.6576 24.148 60.5024 23.9469 60.2837 23.7987C60.0721 23.6506 59.8146 23.5765 59.5112 23.5765C59.222 23.5765 58.9645 23.6506 58.7387 23.7987C58.513 23.9398 58.3401 24.1515 58.2202 24.4337C58.1073 24.7088 58.065 25.0439 58.0932 25.439C58.065 25.7917 58.1109 26.1056 58.2308 26.3808C58.3578 26.6489 58.5412 26.857 58.7811 27.0051C59.028 27.1533 59.3102 27.2273 59.6276 27.2273C59.9451 27.2273 60.2132 27.1603 60.4319 27.0263C60.6576 26.8922 60.834 26.7123 60.961 26.4866L62.0827 27.0369C61.9698 27.312 61.7934 27.5554 61.5536 27.767C61.3137 27.9787 61.028 28.1445 60.6964 28.2644C60.3719 28.3843 60.0121 28.4443 59.617 28.4443ZM66.0965 28.4443C65.5039 28.4443 64.9854 28.3102 64.5409 28.0422C64.0965 27.7741 63.7508 27.4108 63.5039 26.9522C63.257 26.4936 63.1335 25.9857 63.1335 25.4284C63.1335 24.8499 63.257 24.3384 63.5039 23.894C63.7579 23.4425 64.1 23.0862 64.5303 22.8252C64.9677 22.5642 65.4545 22.4337 65.9907 22.4337C66.4422 22.4337 66.8372 22.5077 67.1759 22.6559C67.5215 22.804 67.8143 23.0086 68.0542 23.2696C68.294 23.5307 68.4775 23.8305 68.6044 24.1691C68.7314 24.5007 68.7949 24.8605 68.7949 25.2485C68.7949 25.3473 68.7879 25.4496 68.7738 25.5554C68.7667 25.6612 68.7491 25.7529 68.7208 25.8305H64.2764V24.7723H67.9378L67.2817 25.2697C67.3452 24.9451 67.3275 24.6559 67.2288 24.4019C67.1371 24.148 66.9819 23.9469 66.7632 23.7987C66.5515 23.6506 66.294 23.5765 65.9907 23.5765C65.7014 23.5765 65.4439 23.6506 65.2182 23.7987C64.9924 23.9398 64.8196 24.1515 64.6997 24.4337C64.5868 24.7088 64.5445 25.0439 64.5727 25.439C64.5445 25.7917 64.5903 26.1056 64.7102 26.3808C64.8372 26.6489 65.0206 26.857 65.2605 27.0051C65.5074 27.1533 65.7896 27.2273 66.1071 27.2273C66.4245 27.2273 66.6926 27.1603 66.9113 27.0263C67.1371 26.8922 67.3134 26.7123 67.4404 26.4866L68.5621 27.0369C68.4492 27.312 68.2729 27.5554 68.033 27.767C67.7931 27.9787 67.5074 28.1445 67.1759 28.2644C66.8513 28.3843 66.4916 28.4443 66.0965 28.4443ZM71.843 28.3173V20.4337H74.7848C75.3209 20.4337 75.7936 20.5324 76.2028 20.73C76.619 20.9204 76.9435 21.2026 77.1763 21.5765C77.4091 21.9434 77.5255 22.3913 77.5255 22.9204C77.5255 23.4425 77.4056 23.8905 77.1657 24.2644C76.9329 24.6312 76.6119 24.9134 76.2028 25.1109C75.7936 25.3085 75.3209 25.4072 74.7848 25.4072H73.2821V28.3173H71.843ZM73.2821 24.1374H74.8059C75.067 24.1374 75.2927 24.088 75.4832 23.9892C75.6737 23.8834 75.8218 23.7388 75.9276 23.5554C76.0335 23.3719 76.0864 23.1603 76.0864 22.9204C76.0864 22.6735 76.0335 22.4619 75.9276 22.2855C75.8218 22.1021 75.6737 21.961 75.4832 21.8622C75.2927 21.7564 75.067 21.7035 74.8059 21.7035H73.2821V24.1374ZM81.1119 28.4443C80.5193 28.4443 80.0007 28.3102 79.5563 28.0422C79.1118 27.7741 78.7662 27.4108 78.5193 26.9522C78.2723 26.4936 78.1489 25.9857 78.1489 25.4284C78.1489 24.8499 78.2723 24.3384 78.5193 23.894C78.7732 23.4425 79.1154 23.0862 79.5457 22.8252C79.9831 22.5642 80.4699 22.4337 81.006 22.4337C81.4575 22.4337 81.8526 22.5077 82.1912 22.6559C82.5369 22.804 82.8297 23.0086 83.0695 23.2696C83.3094 23.5307 83.4928 23.8305 83.6198 24.1691C83.7468 24.5007 83.8103 24.8605 83.8103 25.2485C83.8103 25.3473 83.8032 25.4496 83.7891 25.5554C83.7821 25.6612 83.7644 25.7529 83.7362 25.8305H79.2917V24.7723H82.9531L82.297 25.2697C82.3605 24.9451 82.3429 24.6559 82.2441 24.4019C82.1524 24.148 81.9972 23.9469 81.7785 23.7987C81.5669 23.6506 81.3094 23.5765 81.006 23.5765C80.7168 23.5765 80.4593 23.6506 80.2335 23.7987C80.0078 23.9398 79.835 24.1515 79.715 24.4337C79.6021 24.7088 79.5598 25.0439 79.588 25.439C79.5598 25.7917 79.6057 26.1056 79.7256 26.3808C79.8526 26.6489 80.036 26.857 80.2759 27.0051C80.5228 27.1533 80.805 27.2273 81.1224 27.2273C81.4399 27.2273 81.708 27.1603 81.9267 27.0263C82.1524 26.8922 82.3288 26.7123 82.4558 26.4866L83.5775 27.0369C83.4646 27.312 83.2882 27.5554 83.0484 27.767C82.8085 27.9787 82.5228 28.1445 82.1912 28.2644C81.8667 28.3843 81.5069 28.4443 81.1119 28.4443ZM84.8611 28.3173V22.5606H86.1627V23.8411L86.0569 23.6506C86.1909 23.2203 86.3991 22.9204 86.6813 22.7511C86.9705 22.5818 87.3162 22.4972 87.7183 22.4972H88.0569V23.7247H87.5596C87.1645 23.7247 86.847 23.8481 86.6072 24.095C86.3673 24.3349 86.2474 24.6735 86.2474 25.1109V28.3173H84.8611ZM89.4857 28.3173V23.7987H88.4699V22.5606H89.4857V22.3702C89.4857 21.9328 89.5739 21.5624 89.7503 21.2591C89.9337 20.9486 90.1877 20.7123 90.5122 20.5501C90.8367 20.3878 91.2212 20.3067 91.6656 20.3067C91.7503 20.3067 91.842 20.3137 91.9408 20.3278C92.0466 20.3349 92.1348 20.3455 92.2053 20.3596V21.5554C92.1348 21.5412 92.0678 21.5342 92.0043 21.5342C91.9478 21.5271 91.8949 21.5236 91.8455 21.5236C91.5351 21.5236 91.2953 21.5942 91.126 21.7352C90.9567 21.8693 90.872 22.0809 90.872 22.3702V22.5606H92.1524V23.7987H90.872V28.3173H89.4857ZM95.7675 28.4443C95.2031 28.4443 94.6882 28.3138 94.2225 28.0527C93.764 27.7917 93.3971 27.4355 93.122 26.984C92.8539 26.5324 92.7199 26.0175 92.7199 25.439C92.7199 24.8605 92.8539 24.3455 93.122 23.894C93.3971 23.4425 93.764 23.0862 94.2225 22.8252C94.6811 22.5642 95.1961 22.4337 95.7675 22.4337C96.3319 22.4337 96.8434 22.5642 97.3019 22.8252C97.7605 23.0862 98.1238 23.4425 98.3919 23.894C98.667 24.3384 98.8046 24.8534 98.8046 25.439C98.8046 26.0175 98.667 26.5324 98.3919 26.984C98.1167 27.4355 97.7499 27.7917 97.2913 28.0527C96.8328 28.3138 96.3248 28.4443 95.7675 28.4443ZM95.7675 27.1744C96.0779 27.1744 96.3495 27.1004 96.5823 26.9522C96.8222 26.8041 97.0092 26.5995 97.1432 26.3384C97.2843 26.0704 97.3548 25.7705 97.3548 25.439C97.3548 25.1003 97.2843 24.804 97.1432 24.5501C97.0092 24.2891 96.8222 24.0845 96.5823 23.9363C96.3495 23.7811 96.0779 23.7035 95.7675 23.7035C95.4501 23.7035 95.1714 23.7811 94.9315 23.9363C94.6917 24.0845 94.5012 24.2891 94.3601 24.5501C94.2261 24.804 94.1591 25.1003 94.1591 25.439C94.1591 25.7705 94.2261 26.0704 94.3601 26.3384C94.5012 26.5995 94.6917 26.8041 94.9315 26.9522C95.1714 27.1004 95.4501 27.1744 95.7675 27.1744ZM99.8558 28.3173V22.5606H101.157V23.8411L101.052 23.6506C101.186 23.2203 101.394 22.9204 101.676 22.7511C101.965 22.5818 102.311 22.4972 102.713 22.4972H103.052V23.7247H102.554C102.159 23.7247 101.842 23.8481 101.602 24.095C101.362 24.3349 101.242 24.6735 101.242 25.1109V28.3173H99.8558ZM103.814 28.3173V22.5606H105.115V23.894L104.967 23.6718C105.073 23.2555 105.285 22.9451 105.602 22.7405C105.92 22.536 106.294 22.4337 106.724 22.4337C107.197 22.4337 107.613 22.5571 107.973 22.804C108.332 23.051 108.565 23.3755 108.671 23.7776L108.279 23.8093C108.456 23.3508 108.72 23.0086 109.073 22.7829C109.426 22.5501 109.831 22.4337 110.29 22.4337C110.699 22.4337 111.062 22.5254 111.38 22.7088C111.704 22.8922 111.958 23.1497 112.142 23.4813C112.325 23.8058 112.417 24.1832 112.417 24.6136V28.3173H111.031V24.9416C111.031 24.6876 110.985 24.4689 110.893 24.2855C110.801 24.1021 110.674 23.961 110.512 23.8622C110.35 23.7564 110.152 23.7035 109.92 23.7035C109.701 23.7035 109.507 23.7564 109.338 23.8622C109.168 23.961 109.038 24.1021 108.946 24.2855C108.854 24.4689 108.809 24.6876 108.809 24.9416V28.3173H107.422V24.9416C107.422 24.6876 107.376 24.4689 107.285 24.2855C107.193 24.1021 107.062 23.961 106.893 23.8622C106.731 23.7564 106.537 23.7035 106.311 23.7035C106.092 23.7035 105.898 23.7564 105.729 23.8622C105.56 23.961 105.429 24.1021 105.338 24.2855C105.246 24.4689 105.2 24.6876 105.2 24.9416V28.3173H103.814ZM115.336 28.4443C114.934 28.4443 114.584 28.3773 114.288 28.2432C113.992 28.1092 113.763 27.9187 113.6 27.6718C113.438 27.4178 113.357 27.125 113.357 26.7935C113.357 26.476 113.428 26.1938 113.569 25.9469C113.71 25.6929 113.928 25.4813 114.225 25.312C114.521 25.1427 114.895 25.0227 115.346 24.9522L117.23 24.6453V25.7035L115.611 25.9787C115.336 26.028 115.131 26.1162 114.997 26.2432C114.863 26.3702 114.796 26.536 114.796 26.7406C114.796 26.9381 114.87 27.0968 115.018 27.2168C115.174 27.3296 115.364 27.3861 115.59 27.3861C115.879 27.3861 116.133 27.3261 116.352 27.2062C116.577 27.0792 116.75 26.9063 116.87 26.6877C116.997 26.469 117.061 26.2291 117.061 25.9681V24.4866C117.061 24.2397 116.962 24.0351 116.764 23.8728C116.574 23.7035 116.32 23.6189 116.002 23.6189C115.706 23.6189 115.442 23.7 115.209 23.8622C114.983 24.0174 114.817 24.2256 114.711 24.4866L113.579 23.9363C113.692 23.633 113.868 23.3719 114.108 23.1532C114.355 22.9275 114.644 22.7511 114.976 22.6241C115.308 22.4972 115.667 22.4337 116.055 22.4337C116.528 22.4337 116.944 22.5218 117.304 22.6982C117.664 22.8675 117.943 23.1074 118.14 23.4178C118.345 23.7211 118.447 24.0774 118.447 24.4866V28.3173H117.135V27.3332L117.431 27.312C117.283 27.5589 117.107 27.767 116.902 27.9363C116.697 28.0986 116.465 28.2256 116.204 28.3173C115.943 28.4019 115.653 28.4443 115.336 28.4443ZM119.728 28.3173V22.5606H121.03V23.6929L120.924 23.4919C121.058 23.1462 121.277 22.8852 121.58 22.7088C121.89 22.5254 122.25 22.4337 122.659 22.4337C123.083 22.4337 123.457 22.5254 123.781 22.7088C124.113 22.8922 124.37 23.1497 124.554 23.4813C124.737 23.8058 124.829 24.1832 124.829 24.6136V28.3173H123.443V24.9416C123.443 24.6876 123.393 24.4689 123.294 24.2855C123.196 24.1021 123.058 23.961 122.882 23.8622C122.712 23.7564 122.511 23.7035 122.278 23.7035C122.053 23.7035 121.852 23.7564 121.675 23.8622C121.499 23.961 121.361 24.1021 121.263 24.2855C121.164 24.4689 121.114 24.6876 121.114 24.9416V28.3173H119.728ZM128.773 28.4443C128.202 28.4443 127.687 28.3138 127.228 28.0527C126.777 27.7847 126.421 27.4249 126.16 26.9734C125.899 26.5148 125.768 25.9998 125.768 25.4284C125.768 24.857 125.899 24.3455 126.16 23.894C126.421 23.4425 126.777 23.0862 127.228 22.8252C127.687 22.5642 128.202 22.4337 128.773 22.4337C129.183 22.4337 129.564 22.5077 129.916 22.6559C130.269 22.797 130.572 22.9945 130.826 23.2485C131.087 23.4954 131.274 23.7917 131.387 24.1374L130.17 24.6665C130.064 24.3772 129.885 24.1444 129.631 23.9681C129.384 23.7917 129.098 23.7035 128.773 23.7035C128.47 23.7035 128.199 23.7776 127.959 23.9257C127.726 24.0739 127.542 24.2785 127.408 24.5395C127.274 24.8005 127.207 25.1003 127.207 25.439C127.207 25.7776 127.274 26.0774 127.408 26.3384C127.542 26.5995 127.726 26.8041 127.959 26.9522C128.199 27.1004 128.47 27.1744 128.773 27.1744C129.105 27.1744 129.394 27.0862 129.641 26.9099C129.888 26.7335 130.064 26.4972 130.17 26.2009L131.387 26.7511C131.274 27.0757 131.091 27.3684 130.837 27.6295C130.583 27.8834 130.28 28.0845 129.927 28.2326C129.574 28.3737 129.19 28.4443 128.773 28.4443ZM135.169 28.4443C134.577 28.4443 134.058 28.3102 133.614 28.0422C133.169 27.7741 132.824 27.4108 132.577 26.9522C132.33 26.4936 132.206 25.9857 132.206 25.4284C132.206 24.8499 132.33 24.3384 132.577 23.894C132.831 23.4425 133.173 23.0862 133.603 22.8252C134.041 22.5642 134.527 22.4337 135.063 22.4337C135.515 22.4337 135.91 22.5077 136.249 22.6559C136.594 22.804 136.887 23.0086 137.127 23.2696C137.367 23.5307 137.55 23.8305 137.677 24.1691C137.804 24.5007 137.868 24.8605 137.868 25.2485C137.868 25.3473 137.861 25.4496 137.847 25.5554C137.839 25.6612 137.822 25.7529 137.794 25.8305H133.349V24.7723H137.011L136.354 25.2697C136.418 24.9451 136.4 24.6559 136.302 24.4019C136.21 24.148 136.055 23.9469 135.836 23.7987C135.624 23.6506 135.367 23.5765 135.063 23.5765C134.774 23.5765 134.517 23.6506 134.291 23.7987C134.065 23.9398 133.892 24.1515 133.772 24.4337C133.66 24.7088 133.617 25.0439 133.645 25.439C133.617 25.7917 133.663 26.1056 133.783 26.3808C133.91 26.6489 134.093 26.857 134.333 27.0051C134.58 27.1533 134.862 27.2273 135.18 27.2273C135.497 27.2273 135.765 27.1603 135.984 27.0263C136.21 26.8922 136.386 26.7123 136.513 26.4866L137.635 27.0369C137.522 27.312 137.346 27.5554 137.106 27.767C136.866 27.9787 136.58 28.1445 136.249 28.2644C135.924 28.3843 135.564 28.4443 135.169 28.4443Z" fill="#18181B"/>
<rect x="154.445" y="15.1162" width="51.4766" height="22.3145" rx="10.2514" fill="white"/>
<path d="M164.267 29.2735V24.6974H163.219V23.8535H165.256V29.2735H164.267ZM166.277 29.2735V28.5242L167.747 26.9891C168.038 26.6836 168.261 26.441 168.416 26.2616C168.576 26.0773 168.688 25.9197 168.751 25.7887C168.814 25.6578 168.845 25.5244 168.845 25.3886C168.845 25.1606 168.773 24.9812 168.627 24.8502C168.487 24.7193 168.305 24.6538 168.082 24.6538C167.849 24.6538 167.647 24.7217 167.478 24.8575C167.308 24.9884 167.184 25.1824 167.107 25.4395L166.241 25.1703C166.299 24.8842 166.418 24.6368 166.597 24.4283C166.777 24.2148 166.995 24.0524 167.252 23.9408C167.514 23.8244 167.791 23.7662 168.082 23.7662C168.431 23.7662 168.736 23.8293 168.998 23.9554C169.265 24.0815 169.471 24.2585 169.617 24.4865C169.767 24.7144 169.842 24.9812 169.842 25.2867C169.842 25.4807 169.806 25.6723 169.733 25.8615C169.66 26.0506 169.551 26.2446 169.406 26.4435C169.26 26.6375 169.071 26.8557 168.838 27.0982L167.565 28.4369H169.915V29.2735H166.277ZM172.1 29.2735V23.8535H173.046L175.076 26.6108H174.625L176.611 23.8535H177.557V29.2735H176.56V24.9812L176.946 25.0757L174.887 27.8185H174.77L172.763 25.0757L173.09 24.9812V29.2735H172.1ZM180.449 29.3608C180.061 29.3608 179.707 29.2711 179.387 29.0916C179.072 28.9122 178.82 28.6672 178.63 28.3568C178.446 28.0464 178.354 27.6924 178.354 27.2947C178.354 26.897 178.446 26.5429 178.63 26.2325C178.82 25.9221 179.072 25.6772 179.387 25.4977C179.702 25.3182 180.056 25.2285 180.449 25.2285C180.837 25.2285 181.189 25.3182 181.504 25.4977C181.819 25.6772 182.069 25.9221 182.254 26.2325C182.443 26.5381 182.537 26.8921 182.537 27.2947C182.537 27.6924 182.443 28.0464 182.254 28.3568C182.064 28.6672 181.812 28.9122 181.497 29.0916C181.182 29.2711 180.832 29.3608 180.449 29.3608ZM180.449 28.4878C180.663 28.4878 180.849 28.4369 181.009 28.335C181.174 28.2332 181.303 28.0925 181.395 27.9131C181.492 27.7288 181.541 27.5226 181.541 27.2947C181.541 27.0619 181.492 26.8582 181.395 26.6836C181.303 26.5041 181.174 26.3634 181.009 26.2616C180.849 26.1549 180.663 26.1015 180.449 26.1015C180.231 26.1015 180.039 26.1549 179.875 26.2616C179.71 26.3634 179.579 26.5041 179.482 26.6836C179.39 26.8582 179.343 27.0619 179.343 27.2947C179.343 27.5226 179.39 27.7288 179.482 27.9131C179.579 28.0925 179.71 28.2332 179.875 28.335C180.039 28.4369 180.231 28.4878 180.449 28.4878ZM183.26 29.2735V25.3158H184.155V26.0943L184.082 25.956C184.174 25.7184 184.325 25.5389 184.533 25.4177C184.747 25.2916 184.994 25.2285 185.275 25.2285C185.566 25.2285 185.823 25.2916 186.046 25.4177C186.274 25.5438 186.451 25.7208 186.577 25.9488C186.704 26.1719 186.767 26.4313 186.767 26.7272V29.2735H185.814V26.9527C185.814 26.7781 185.78 26.6278 185.712 26.5017C185.644 26.3756 185.549 26.2786 185.428 26.2107C185.312 26.1379 185.173 26.1015 185.013 26.1015C184.858 26.1015 184.72 26.1379 184.599 26.2107C184.477 26.2786 184.383 26.3756 184.315 26.5017C184.247 26.6278 184.213 26.7781 184.213 26.9527V29.2735H183.26ZM189.377 29.3172C188.931 29.3172 188.584 29.1959 188.336 28.9534C188.094 28.7061 187.973 28.3593 187.973 27.9131V26.167H187.289V25.3158H187.362C187.556 25.3158 187.706 25.2649 187.813 25.163C187.919 25.0612 187.973 24.9133 187.973 24.7193V24.4137H188.926V25.3158H189.835V26.167H188.926V27.8621C188.926 27.9931 188.948 28.1046 188.991 28.1968C189.04 28.2889 189.112 28.3593 189.209 28.4078C189.311 28.4563 189.44 28.4805 189.595 28.4805C189.629 28.4805 189.668 28.4781 189.711 28.4732C189.76 28.4684 189.806 28.4635 189.85 28.4587V29.2735C189.782 29.2832 189.704 29.2929 189.617 29.3026C189.53 29.3123 189.45 29.3172 189.377 29.3172ZM190.578 29.2735V23.7662H191.531V26.0943L191.4 25.956C191.492 25.7184 191.642 25.5389 191.851 25.4177C192.064 25.2916 192.312 25.2285 192.593 25.2285C192.884 25.2285 193.141 25.2916 193.364 25.4177C193.592 25.5438 193.769 25.7208 193.895 25.9488C194.021 26.1719 194.084 26.4313 194.084 26.7272V29.2735H193.131V26.9527C193.131 26.7781 193.097 26.6278 193.03 26.5017C192.962 26.3756 192.867 26.2786 192.746 26.2107C192.629 26.1379 192.491 26.1015 192.331 26.1015C192.176 26.1015 192.038 26.1379 191.916 26.2107C191.795 26.2786 191.701 26.3756 191.633 26.5017C191.565 26.6278 191.531 26.7781 191.531 26.9527V29.2735H190.578ZM196.396 29.3608C195.974 29.3608 195.606 29.2614 195.29 29.0625C194.98 28.8588 194.767 28.5848 194.65 28.2404L195.363 27.8985C195.465 28.1216 195.606 28.2962 195.785 28.4223C195.969 28.5484 196.173 28.6115 196.396 28.6115C196.571 28.6115 196.709 28.5727 196.811 28.4951C196.913 28.4175 196.964 28.3156 196.964 28.1895C196.964 28.1119 196.942 28.0489 196.898 28.0004C196.859 27.947 196.804 27.9034 196.731 27.8694C196.663 27.8306 196.588 27.7991 196.505 27.7748L195.858 27.5929C195.523 27.4959 195.269 27.348 195.094 27.1492C194.924 26.9503 194.839 26.7151 194.839 26.4435C194.839 26.201 194.9 25.99 195.021 25.8105C195.147 25.6262 195.32 25.4832 195.538 25.3813C195.761 25.2794 196.016 25.2285 196.302 25.2285C196.675 25.2285 197.005 25.3182 197.291 25.4977C197.577 25.6772 197.781 25.9294 197.902 26.2543L197.175 26.5963C197.107 26.4168 196.993 26.2737 196.833 26.167C196.673 26.0603 196.493 26.007 196.294 26.007C196.134 26.007 196.008 26.0433 195.916 26.1161C195.824 26.1888 195.778 26.2834 195.778 26.3998C195.778 26.4726 195.797 26.5356 195.836 26.589C195.875 26.6423 195.928 26.686 195.996 26.7199C196.069 26.7539 196.151 26.7854 196.244 26.8145L196.876 27.0037C197.201 27.1007 197.451 27.2462 197.626 27.4402C197.805 27.6342 197.895 27.8718 197.895 28.1531C197.895 28.3908 197.832 28.6018 197.706 28.7861C197.58 28.9655 197.405 29.1062 197.182 29.208C196.959 29.3099 196.697 29.3608 196.396 29.3608Z" fill="#18181B"/>
<rect x="154.445" y="15.1162" width="51.4766" height="22.3145" rx="10.2514" stroke="#A1A1AA" stroke-width="0.661379"/>
<rect x="212.192" y="14.7856" width="50.1581" height="22.9759" rx="10.5821" fill="white"/>
<path d="M223.692 29.3608C223.324 29.3608 222.996 29.2832 222.71 29.128C222.429 28.968 222.208 28.7546 222.048 28.4878C221.888 28.2162 221.808 27.9082 221.808 27.5638C221.808 27.3892 221.825 27.2146 221.859 27.04C221.898 26.8654 221.965 26.6787 222.062 26.4798C222.164 26.281 222.31 26.0603 222.499 25.8178L224.012 23.8535H225.191L223.35 26.2179L223.19 26.0433C223.258 25.99 223.328 25.9488 223.401 25.9197C223.474 25.8857 223.547 25.8615 223.619 25.8469C223.697 25.8324 223.777 25.8251 223.859 25.8251C224.189 25.8251 224.483 25.9003 224.74 26.0506C224.997 26.201 225.198 26.4071 225.344 26.669C225.494 26.9261 225.569 27.2171 225.569 27.542C225.569 27.8912 225.489 28.2041 225.329 28.4805C225.169 28.7521 224.946 28.968 224.66 29.128C224.378 29.2832 224.056 29.3608 223.692 29.3608ZM223.692 28.466C223.857 28.466 224.005 28.4296 224.136 28.3568C224.272 28.2792 224.378 28.1701 224.456 28.0295C224.538 27.8888 224.58 27.7312 224.58 27.5566C224.58 27.3723 224.538 27.2146 224.456 27.0837C224.378 26.9479 224.274 26.8412 224.143 26.7636C224.012 26.686 223.862 26.6472 223.692 26.6472C223.527 26.6472 223.377 26.686 223.241 26.7636C223.105 26.8412 222.996 26.9479 222.914 27.0837C222.836 27.2146 222.797 27.3723 222.797 27.5566C222.797 27.7312 222.836 27.8888 222.914 28.0295C222.996 28.1701 223.105 28.2792 223.241 28.3568C223.377 28.4296 223.527 28.466 223.692 28.466ZM227.688 29.2735V23.8535H228.634L230.664 26.6108H230.213L232.199 23.8535H233.145V29.2735H232.148V24.9812L232.534 25.0757L230.475 27.8185H230.358L228.35 25.0757L228.678 24.9812V29.2735H227.688ZM236.037 29.3608C235.649 29.3608 235.295 29.2711 234.975 29.0916C234.66 28.9122 234.408 28.6672 234.218 28.3568C234.034 28.0464 233.942 27.6924 233.942 27.2947C233.942 26.897 234.034 26.5429 234.218 26.2325C234.408 25.9221 234.66 25.6772 234.975 25.4977C235.29 25.3182 235.644 25.2285 236.037 25.2285C236.425 25.2285 236.777 25.3182 237.092 25.4977C237.407 25.6772 237.657 25.9221 237.841 26.2325C238.031 26.5381 238.125 26.8921 238.125 27.2947C238.125 27.6924 238.031 28.0464 237.841 28.3568C237.652 28.6672 237.4 28.9122 237.085 29.0916C236.77 29.2711 236.42 29.3608 236.037 29.3608ZM236.037 28.4878C236.251 28.4878 236.437 28.4369 236.597 28.335C236.762 28.2332 236.891 28.0925 236.983 27.9131C237.08 27.7288 237.128 27.5226 237.128 27.2947C237.128 27.0619 237.08 26.8582 236.983 26.6836C236.891 26.5041 236.762 26.3634 236.597 26.2616C236.437 26.1549 236.251 26.1015 236.037 26.1015C235.819 26.1015 235.627 26.1549 235.462 26.2616C235.298 26.3634 235.167 26.5041 235.07 26.6836C234.977 26.8582 234.931 27.0619 234.931 27.2947C234.931 27.5226 234.977 27.7288 235.07 27.9131C235.167 28.0925 235.298 28.2332 235.462 28.335C235.627 28.4369 235.819 28.4878 236.037 28.4878ZM238.848 29.2735V25.3158H239.743V26.0943L239.67 25.956C239.762 25.7184 239.912 25.5389 240.121 25.4177C240.334 25.2916 240.582 25.2285 240.863 25.2285C241.154 25.2285 241.411 25.2916 241.634 25.4177C241.862 25.5438 242.039 25.7208 242.165 25.9488C242.291 26.1719 242.355 26.4313 242.355 26.7272V29.2735H241.401V26.9527C241.401 26.7781 241.368 26.6278 241.3 26.5017C241.232 26.3756 241.137 26.2786 241.016 26.2107C240.899 26.1379 240.761 26.1015 240.601 26.1015C240.446 26.1015 240.308 26.1379 240.187 26.2107C240.065 26.2786 239.971 26.3756 239.903 26.5017C239.835 26.6278 239.801 26.7781 239.801 26.9527V29.2735H238.848ZM244.965 29.3172C244.518 29.3172 244.172 29.1959 243.924 28.9534C243.682 28.7061 243.561 28.3593 243.561 27.9131V26.167H242.877V25.3158H242.949C243.143 25.3158 243.294 25.2649 243.401 25.163C243.507 25.0612 243.561 24.9133 243.561 24.7193V24.4137H244.514V25.3158H245.423V26.167H244.514V27.8621C244.514 27.9931 244.535 28.1046 244.579 28.1968C244.628 28.2889 244.7 28.3593 244.797 28.4078C244.899 28.4563 245.028 28.4805 245.183 28.4805C245.217 28.4805 245.256 28.4781 245.299 28.4732C245.348 28.4684 245.394 28.4635 245.438 28.4587V29.2735C245.37 29.2832 245.292 29.2929 245.205 29.3026C245.117 29.3123 245.037 29.3172 244.965 29.3172ZM246.166 29.2735V23.7662H247.119V26.0943L246.988 25.956C247.08 25.7184 247.23 25.5389 247.439 25.4177C247.652 25.2916 247.9 25.2285 248.181 25.2285C248.472 25.2285 248.729 25.2916 248.952 25.4177C249.18 25.5438 249.357 25.7208 249.483 25.9488C249.609 26.1719 249.672 26.4313 249.672 26.7272V29.2735H248.719V26.9527C248.719 26.7781 248.685 26.6278 248.617 26.5017C248.55 26.3756 248.455 26.2786 248.334 26.2107C248.217 26.1379 248.079 26.1015 247.919 26.1015C247.764 26.1015 247.626 26.1379 247.504 26.2107C247.383 26.2786 247.288 26.3756 247.221 26.5017C247.153 26.6278 247.119 26.7781 247.119 26.9527V29.2735H246.166ZM251.984 29.3608C251.562 29.3608 251.194 29.2614 250.878 29.0625C250.568 28.8588 250.355 28.5848 250.238 28.2404L250.951 27.8985C251.053 28.1216 251.194 28.2962 251.373 28.4223C251.557 28.5484 251.761 28.6115 251.984 28.6115C252.159 28.6115 252.297 28.5727 252.399 28.4951C252.501 28.4175 252.552 28.3156 252.552 28.1895C252.552 28.1119 252.53 28.0489 252.486 28.0004C252.447 27.947 252.392 27.9034 252.319 27.8694C252.251 27.8306 252.176 27.7991 252.093 27.7748L251.446 27.5929C251.111 27.4959 250.857 27.348 250.682 27.1492C250.512 26.9503 250.427 26.7151 250.427 26.4435C250.427 26.201 250.488 25.99 250.609 25.8105C250.735 25.6262 250.907 25.4832 251.126 25.3813C251.349 25.2794 251.603 25.2285 251.89 25.2285C252.263 25.2285 252.593 25.3182 252.879 25.4977C253.165 25.6772 253.369 25.9294 253.49 26.2543L252.763 26.5963C252.695 26.4168 252.581 26.2737 252.421 26.167C252.261 26.0603 252.081 26.007 251.882 26.007C251.722 26.007 251.596 26.0433 251.504 26.1161C251.412 26.1888 251.366 26.2834 251.366 26.3998C251.366 26.4726 251.385 26.5356 251.424 26.589C251.463 26.6423 251.516 26.686 251.584 26.7199C251.657 26.7539 251.739 26.7854 251.831 26.8145L252.464 27.0037C252.789 27.1007 253.039 27.2462 253.214 27.4402C253.393 27.6342 253.483 27.8718 253.483 28.1531C253.483 28.3908 253.42 28.6018 253.294 28.7861C253.168 28.9655 252.993 29.1062 252.77 29.208C252.547 29.3099 252.285 29.3608 251.984 29.3608Z" fill="#71717A"/>
<rect x="268.29" y="14.7856" width="50.1581" height="22.9759" rx="10.5821" fill="white"/>
<path d="M281.518 29.3608C281.222 29.3608 280.941 29.3075 280.674 29.2008C280.412 29.0892 280.187 28.934 279.998 28.7352C279.813 28.5314 279.687 28.2914 279.619 28.0149L280.485 27.7094C280.572 27.9567 280.706 28.1459 280.885 28.2768C281.065 28.4029 281.276 28.466 281.518 28.466C281.712 28.466 281.88 28.4296 282.02 28.3568C282.166 28.2841 282.28 28.1798 282.362 28.044C282.445 27.9034 282.486 27.7385 282.486 27.5493C282.486 27.3601 282.445 27.2001 282.362 27.0691C282.285 26.9333 282.173 26.8291 282.027 26.7563C281.882 26.6836 281.71 26.6472 281.511 26.6472C281.419 26.6472 281.322 26.6569 281.22 26.6763C281.123 26.6957 281.036 26.7248 280.958 26.7636L280.732 26.2907L282.137 24.6902H279.925V23.8535H283.25V24.632L281.838 26.2834L281.853 25.9124C282.178 25.9172 282.462 25.9876 282.704 26.1234C282.947 26.2592 283.136 26.4459 283.272 26.6836C283.407 26.9212 283.475 27.2001 283.475 27.5202C283.475 27.8694 283.39 28.1847 283.221 28.466C283.051 28.7424 282.818 28.9607 282.522 29.1207C282.226 29.2808 281.892 29.3608 281.518 29.3608ZM286.409 29.3608C285.978 29.3608 285.6 29.2444 285.275 29.0116C284.95 28.7788 284.695 28.4514 284.511 28.0295C284.331 27.6075 284.241 27.1176 284.241 26.5599C284.241 25.9973 284.331 25.5074 284.511 25.0903C284.69 24.6732 284.942 24.3482 285.267 24.1154C285.592 23.8826 285.971 23.7662 286.402 23.7662C286.844 23.7662 287.224 23.8826 287.544 24.1154C287.869 24.3482 288.124 24.6756 288.308 25.0976C288.493 25.5147 288.585 26.0021 288.585 26.5599C288.585 27.1176 288.493 27.6075 288.308 28.0295C288.129 28.4466 287.877 28.774 287.552 29.0116C287.227 29.2444 286.846 29.3608 286.409 29.3608ZM286.417 28.4587C286.664 28.4587 286.875 28.3835 287.05 28.2332C287.224 28.078 287.358 27.8597 287.45 27.5784C287.547 27.2922 287.595 26.9527 287.595 26.5599C287.595 26.167 287.547 25.8299 287.45 25.5486C287.358 25.2625 287.222 25.0442 287.042 24.8939C286.868 24.7435 286.654 24.6683 286.402 24.6683C286.16 24.6683 285.951 24.7435 285.777 24.8939C285.602 25.0442 285.466 25.2625 285.369 25.5486C285.277 25.8299 285.231 26.167 285.231 26.5599C285.231 26.9479 285.277 27.285 285.369 27.5711C285.466 27.8524 285.602 28.0707 285.777 28.2259C285.956 28.3811 286.169 28.4587 286.417 28.4587ZM290.802 29.2735V23.8535H292.57C293.142 23.8535 293.639 23.9699 294.061 24.2027C294.488 24.4307 294.818 24.7484 295.051 25.1558C295.283 25.5583 295.4 26.0264 295.4 26.5599C295.4 27.0885 295.283 27.559 295.051 27.9713C294.818 28.3787 294.488 28.6988 294.061 28.9316C293.639 29.1595 293.142 29.2735 292.57 29.2735H290.802ZM291.791 28.4005H292.592C292.96 28.4005 293.278 28.3253 293.545 28.175C293.816 28.0198 294.027 27.8064 294.178 27.5347C294.328 27.2583 294.403 26.9333 294.403 26.5599C294.403 26.1816 294.328 25.8566 294.178 25.585C294.027 25.3134 293.816 25.1024 293.545 24.9521C293.278 24.8017 292.96 24.7265 292.592 24.7265H291.791V28.4005ZM297.293 29.3608C297.017 29.3608 296.777 29.3147 296.573 29.2226C296.369 29.1304 296.212 28.9995 296.1 28.8297C295.989 28.6551 295.933 28.4538 295.933 28.2259C295.933 28.0076 295.981 27.8136 296.078 27.6439C296.175 27.4693 296.326 27.3238 296.529 27.2074C296.733 27.091 296.99 27.0085 297.301 26.96L298.596 26.749V27.4765L297.482 27.6657C297.293 27.6997 297.153 27.7603 297.061 27.8476C296.968 27.9349 296.922 28.0489 296.922 28.1895C296.922 28.3253 296.973 28.4344 297.075 28.5169C297.182 28.5945 297.313 28.6333 297.468 28.6333C297.667 28.6333 297.841 28.5921 297.992 28.5096C298.147 28.4223 298.266 28.3035 298.348 28.1531C298.436 28.0028 298.479 27.8379 298.479 27.6584V26.6399C298.479 26.4701 298.411 26.3295 298.275 26.2179C298.145 26.1015 297.97 26.0433 297.752 26.0433C297.548 26.0433 297.366 26.0991 297.206 26.2107C297.051 26.3174 296.937 26.4604 296.864 26.6399L296.086 26.2616C296.163 26.053 296.284 25.8736 296.449 25.7232C296.619 25.568 296.818 25.4468 297.046 25.3595C297.274 25.2722 297.521 25.2285 297.788 25.2285C298.113 25.2285 298.399 25.2891 298.646 25.4104C298.894 25.5268 299.085 25.6917 299.221 25.9051C299.362 26.1137 299.432 26.3586 299.432 26.6399V29.2735H298.53V28.5969L298.734 28.5824C298.632 28.7521 298.511 28.8952 298.37 29.0116C298.229 29.1232 298.069 29.2105 297.89 29.2735C297.71 29.3317 297.512 29.3608 297.293 29.3608ZM300.793 30.8813C300.687 30.8813 300.582 30.8716 300.48 30.8522C300.379 30.8377 300.286 30.811 300.204 30.7722V29.9719C300.267 29.9865 300.342 30.001 300.429 30.0156C300.522 30.0301 300.607 30.0374 300.684 30.0374C300.902 30.0374 301.06 29.9865 301.157 29.8846C301.259 29.7828 301.349 29.6494 301.426 29.4845L301.688 28.8734L301.674 29.6736L299.949 25.3158H300.975L302.183 28.5314H301.819L303.019 25.3158H304.053L302.328 29.6736C302.226 29.9307 302.103 30.149 301.957 30.3284C301.812 30.5079 301.642 30.6437 301.448 30.7358C301.259 30.8328 301.041 30.8813 300.793 30.8813ZM306.082 29.3608C305.66 29.3608 305.291 29.2614 304.976 29.0625C304.666 28.8588 304.452 28.5848 304.336 28.2404L305.049 27.8985C305.151 28.1216 305.291 28.2962 305.471 28.4223C305.655 28.5484 305.859 28.6115 306.082 28.6115C306.256 28.6115 306.395 28.5727 306.497 28.4951C306.598 28.4175 306.649 28.3156 306.649 28.1895C306.649 28.1119 306.627 28.0489 306.584 28.0004C306.545 27.947 306.489 27.9034 306.416 27.8694C306.349 27.8306 306.273 27.7991 306.191 27.7748L305.543 27.5929C305.209 27.4959 304.954 27.348 304.78 27.1492C304.61 26.9503 304.525 26.7151 304.525 26.4435C304.525 26.201 304.586 25.99 304.707 25.8105C304.833 25.6262 305.005 25.4832 305.223 25.3813C305.446 25.2794 305.701 25.2285 305.987 25.2285C306.361 25.2285 306.691 25.3182 306.977 25.4977C307.263 25.6772 307.467 25.9294 307.588 26.2543L306.86 26.5963C306.792 26.4168 306.678 26.2737 306.518 26.167C306.358 26.0603 306.179 26.007 305.98 26.007C305.82 26.007 305.694 26.0433 305.602 26.1161C305.51 26.1888 305.463 26.2834 305.463 26.3998C305.463 26.4726 305.483 26.5356 305.522 26.589C305.56 26.6423 305.614 26.686 305.682 26.7199C305.754 26.7539 305.837 26.7854 305.929 26.8145L306.562 27.0037C306.887 27.1007 307.137 27.2462 307.311 27.4402C307.491 27.6342 307.581 27.8718 307.581 28.1531C307.581 28.3908 307.517 28.6018 307.391 28.7861C307.265 28.9655 307.091 29.1062 306.868 29.208C306.644 29.3099 306.383 29.3608 306.082 29.3608Z" fill="#71717A"/>
<rect x="324.388" y="14.7856" width="50.1581" height="22.9759" rx="10.5821" fill="white"/>
<path d="M338.543 29.2735L340.798 24.6902H338.245V23.8535H341.839V24.6902L339.634 29.2735H338.543ZM343.9 29.2735V23.8535H345.668C346.24 23.8535 346.737 23.9699 347.159 24.2027C347.586 24.4307 347.916 24.7484 348.149 25.1558C348.381 25.5583 348.498 26.0264 348.498 26.5599C348.498 27.0885 348.381 27.559 348.149 27.9713C347.916 28.3787 347.586 28.6988 347.159 28.9316C346.737 29.1595 346.24 29.2735 345.668 29.2735H343.9ZM344.889 28.4005H345.69C346.058 28.4005 346.376 28.3253 346.643 28.175C346.914 28.0198 347.125 27.8064 347.276 27.5347C347.426 27.2583 347.501 26.9333 347.501 26.5599C347.501 26.1816 347.426 25.8566 347.276 25.585C347.125 25.3134 346.914 25.1024 346.643 24.9521C346.376 24.8017 346.058 24.7265 345.69 24.7265H344.889V28.4005ZM350.391 29.3608C350.115 29.3608 349.875 29.3147 349.671 29.2226C349.468 29.1304 349.31 28.9995 349.198 28.8297C349.087 28.6551 349.031 28.4538 349.031 28.2259C349.031 28.0076 349.08 27.8136 349.177 27.6439C349.274 27.4693 349.424 27.3238 349.628 27.2074C349.831 27.091 350.088 27.0085 350.399 26.96L351.694 26.749V27.4765L350.581 27.6657C350.391 27.6997 350.251 27.7603 350.159 27.8476C350.067 27.9349 350.02 28.0489 350.02 28.1895C350.02 28.3253 350.071 28.4344 350.173 28.5169C350.28 28.5945 350.411 28.6333 350.566 28.6333C350.765 28.6333 350.94 28.5921 351.09 28.5096C351.245 28.4223 351.364 28.3035 351.446 28.1531C351.534 28.0028 351.577 27.8379 351.577 27.6584V26.6399C351.577 26.4701 351.509 26.3295 351.374 26.2179C351.243 26.1015 351.068 26.0433 350.85 26.0433C350.646 26.0433 350.464 26.0991 350.304 26.2107C350.149 26.3174 350.035 26.4604 349.962 26.6399L349.184 26.2616C349.261 26.053 349.383 25.8736 349.548 25.7232C349.717 25.568 349.916 25.4468 350.144 25.3595C350.372 25.2722 350.619 25.2285 350.886 25.2285C351.211 25.2285 351.497 25.2891 351.745 25.4104C351.992 25.5268 352.184 25.6917 352.319 25.9051C352.46 26.1137 352.53 26.3586 352.53 26.6399V29.2735H351.628V28.5969L351.832 28.5824C351.73 28.7521 351.609 28.8952 351.468 29.0116C351.328 29.1232 351.167 29.2105 350.988 29.2735C350.809 29.3317 350.61 29.3608 350.391 29.3608ZM353.891 30.8813C353.785 30.8813 353.68 30.8716 353.579 30.8522C353.477 30.8377 353.385 30.811 353.302 30.7722V29.9719C353.365 29.9865 353.44 30.001 353.528 30.0156C353.62 30.0301 353.705 30.0374 353.782 30.0374C354.001 30.0374 354.158 29.9865 354.255 29.8846C354.357 29.7828 354.447 29.6494 354.524 29.4845L354.786 28.8734L354.772 29.6736L353.047 25.3158H354.073L355.281 28.5314H354.917L356.118 25.3158H357.151L355.426 29.6736C355.325 29.9307 355.201 30.149 355.055 30.3284C354.91 30.5079 354.74 30.6437 354.546 30.7358C354.357 30.8328 354.139 30.8813 353.891 30.8813ZM359.18 29.3608C358.758 29.3608 358.389 29.2614 358.074 29.0625C357.764 28.8588 357.55 28.5848 357.434 28.2404L358.147 27.8985C358.249 28.1216 358.389 28.2962 358.569 28.4223C358.753 28.5484 358.957 28.6115 359.18 28.6115C359.355 28.6115 359.493 28.5727 359.595 28.4951C359.697 28.4175 359.747 28.3156 359.747 28.1895C359.747 28.1119 359.726 28.0489 359.682 28.0004C359.643 27.947 359.587 27.9034 359.515 27.8694C359.447 27.8306 359.372 27.7991 359.289 27.7748L358.642 27.5929C358.307 27.4959 358.052 27.348 357.878 27.1492C357.708 26.9503 357.623 26.7151 357.623 26.4435C357.623 26.201 357.684 25.99 357.805 25.8105C357.931 25.6262 358.103 25.4832 358.322 25.3813C358.545 25.2794 358.799 25.2285 359.085 25.2285C359.459 25.2285 359.789 25.3182 360.075 25.4977C360.361 25.6772 360.565 25.9294 360.686 26.2543L359.958 26.5963C359.891 26.4168 359.777 26.2737 359.616 26.167C359.456 26.0603 359.277 26.007 359.078 26.007C358.918 26.007 358.792 26.0433 358.7 26.1161C358.608 26.1888 358.562 26.2834 358.562 26.3998C358.562 26.4726 358.581 26.5356 358.62 26.589C358.659 26.6423 358.712 26.686 358.78 26.7199C358.853 26.7539 358.935 26.7854 359.027 26.8145L359.66 27.0037C359.985 27.1007 360.235 27.2462 360.409 27.4402C360.589 27.6342 360.679 27.8718 360.679 28.1531C360.679 28.3908 360.616 28.6018 360.49 28.7861C360.363 28.9655 360.189 29.1062 359.966 29.208C359.743 29.3099 359.481 29.3608 359.18 29.3608Z" fill="#71717A"/>
<rect x="440.874" y="15.1162" width="64.0162" height="22.3145" rx="10.2514" fill="white" stroke="#D4D4D8" stroke-width="0.661379"/>
<path d="M460.206 28.3807V22.9607H463.808V23.8338H461.196V25.2233H463.662V26.0963H461.196V27.5077H463.808V28.3807H460.206ZM464.097 28.3807L465.479 26.3946L464.089 24.423H465.21L466.294 26.0236H465.792L466.876 24.423H467.989L466.607 26.3946L467.982 28.3807H466.868L465.799 26.7875H466.286L465.217 28.3807H464.097ZM468.51 29.8358V24.423H469.405V25.2088L469.317 25.0123C469.453 24.7989 469.638 24.634 469.87 24.5176C470.103 24.3964 470.372 24.3357 470.678 24.3357C471.051 24.3357 471.388 24.4279 471.689 24.6122C471.99 24.7965 472.228 25.0439 472.402 25.3543C472.582 25.6647 472.671 26.0139 472.671 26.4019C472.671 26.7851 472.584 27.1343 472.409 27.4495C472.235 27.7648 471.997 28.0146 471.696 28.1989C471.396 28.3783 471.054 28.468 470.671 28.468C470.384 28.468 470.12 28.4123 469.878 28.3007C469.64 28.1843 469.451 28.0194 469.31 27.806L469.463 27.6168V29.8358H468.51ZM470.561 27.595C470.78 27.595 470.974 27.5441 471.144 27.4422C471.313 27.3404 471.444 27.1997 471.536 27.0203C471.633 26.8408 471.682 26.6347 471.682 26.4019C471.682 26.1691 471.633 25.9654 471.536 25.7908C471.444 25.6113 471.313 25.4707 471.144 25.3688C470.974 25.2621 470.78 25.2088 470.561 25.2088C470.353 25.2088 470.164 25.2597 469.994 25.3615C469.829 25.4634 469.698 25.6065 469.601 25.7908C469.509 25.9702 469.463 26.1739 469.463 26.4019C469.463 26.6347 469.509 26.8408 469.601 27.0203C469.698 27.1997 469.829 27.3404 469.994 27.4422C470.164 27.5441 470.353 27.595 470.561 27.595ZM475.333 28.468C474.945 28.468 474.591 28.3783 474.271 28.1989C473.956 28.0194 473.703 27.7745 473.514 27.4641C473.33 27.1537 473.238 26.7996 473.238 26.4019C473.238 26.0042 473.33 25.6501 473.514 25.3397C473.703 25.0293 473.956 24.7844 474.271 24.6049C474.586 24.4255 474.94 24.3357 475.333 24.3357C475.721 24.3357 476.073 24.4255 476.388 24.6049C476.703 24.7844 476.953 25.0293 477.137 25.3397C477.326 25.6453 477.421 25.9993 477.421 26.4019C477.421 26.7996 477.326 27.1537 477.137 27.4641C476.948 27.7745 476.696 28.0194 476.381 28.1989C476.065 28.3783 475.716 28.468 475.333 28.468ZM475.333 27.595C475.547 27.595 475.733 27.5441 475.893 27.4422C476.058 27.3404 476.187 27.1997 476.279 27.0203C476.376 26.836 476.424 26.6298 476.424 26.4019C476.424 26.1691 476.376 25.9654 476.279 25.7908C476.187 25.6113 476.058 25.4707 475.893 25.3688C475.733 25.2621 475.547 25.2088 475.333 25.2088C475.115 25.2088 474.923 25.2621 474.758 25.3688C474.593 25.4707 474.463 25.6113 474.365 25.7908C474.273 25.9654 474.227 26.1691 474.227 26.4019C474.227 26.6298 474.273 26.836 474.365 27.0203C474.463 27.1997 474.593 27.3404 474.758 27.4422C474.923 27.5441 475.115 27.595 475.333 27.595ZM478.144 28.3807V24.423H479.039V25.3033L478.966 25.1724C479.058 24.8765 479.201 24.6704 479.395 24.554C479.594 24.4376 479.832 24.3794 480.108 24.3794H480.341V25.2233H479.999C479.727 25.2233 479.509 25.3082 479.344 25.4779C479.179 25.6428 479.097 25.8757 479.097 26.1764V28.3807H478.144ZM482.776 28.4244C482.329 28.4244 481.983 28.3031 481.735 28.0606C481.493 27.8133 481.372 27.4665 481.372 27.0203V25.2742H480.688V24.423H480.76C480.954 24.423 481.105 24.3721 481.212 24.2703C481.318 24.1684 481.372 24.0205 481.372 23.8265V23.5209H482.325V24.423H483.234V25.2742H482.325V26.9694C482.325 27.1003 482.346 27.2119 482.39 27.304C482.439 27.3962 482.511 27.4665 482.608 27.515C482.71 27.5635 482.839 27.5877 482.994 27.5877C483.028 27.5877 483.067 27.5853 483.11 27.5805C483.159 27.5756 483.205 27.5708 483.249 27.5659V28.3807C483.181 28.3904 483.103 28.4001 483.016 28.4098C482.928 28.4195 482.848 28.4244 482.776 28.4244ZM485.35 28.3807V22.9607H487.372C487.741 22.9607 488.066 23.0286 488.347 23.1644C488.633 23.2954 488.856 23.4894 489.016 23.7465C489.177 23.9987 489.257 24.3066 489.257 24.6704C489.257 25.0293 489.174 25.3373 489.009 25.5943C488.849 25.8466 488.628 26.0406 488.347 26.1764C488.066 26.3122 487.741 26.3801 487.372 26.3801H486.339V28.3807H485.35ZM486.339 25.507H487.387C487.566 25.507 487.722 25.4731 487.852 25.4052C487.983 25.3324 488.085 25.233 488.158 25.1069C488.231 24.9808 488.267 24.8353 488.267 24.6704C488.267 24.5006 488.231 24.3551 488.158 24.2339C488.085 24.1078 487.983 24.0108 487.852 23.9429C487.722 23.8701 487.566 23.8338 487.387 23.8338H486.339V25.507ZM490.067 28.3807V22.9607H491.835C492.407 22.9607 492.905 23.0771 493.327 23.3099C493.753 23.5379 494.083 23.8556 494.316 24.263C494.549 24.6656 494.665 25.1336 494.665 25.6671C494.665 26.1958 494.549 26.6662 494.316 27.0785C494.083 27.4859 493.753 27.806 493.327 28.0388C492.905 28.2668 492.407 28.3807 491.835 28.3807H490.067ZM491.057 27.5077H491.857C492.226 27.5077 492.543 27.4325 492.81 27.2822C493.082 27.127 493.293 26.9136 493.443 26.642C493.593 26.3655 493.669 26.0406 493.669 25.6671C493.669 25.2888 493.593 24.9638 493.443 24.6922C493.293 24.4206 493.082 24.2096 492.81 24.0593C492.543 23.9089 492.226 23.8338 491.857 23.8338H491.057V27.5077ZM495.453 28.3807V22.9607H499.068V23.8338H496.442V25.3324H498.741V26.2055H496.442V28.3807H495.453Z" fill="#18181B"/>
<path d="M449.783 24.9971V27.782M449.783 27.782L448.463 26.3895M449.783 27.782L451.103 26.3895M451.983 30.1028H447.583C447.097 30.1028 446.703 29.6872 446.703 29.1745V22.6763C446.703 22.1636 447.097 21.7479 447.583 21.7479H450.041C450.157 21.7479 450.269 21.7968 450.352 21.8839L452.734 24.397C452.817 24.484 452.863 24.6021 452.863 24.7252V29.1745C452.863 29.6872 452.469 30.1028 451.983 30.1028Z" stroke="#18181B" stroke-width="0.992068" stroke-linecap="round" stroke-linejoin="round"/>
</svg>
