<svg width="32" height="43" viewBox="0 0 32 43" fill="none" xmlns="http://www.w3.org/2000/svg">
<path d="M31.2222 11.2463L21.7651 1.36895C21.5015 1.09355 21.1455 0.9375 20.772 0.9375H2.104C1.32617 0.9375 0.697754 1.59385 0.697754 2.40625V40.5938C0.697754 41.4062 1.32617 42.0625 2.104 42.0625H30.229C31.0068 42.0625 31.6353 41.4062 31.6353 40.5938V12.2882C31.6353 11.898 31.4858 11.5217 31.2222 11.2463ZM28.3921 12.9629H20.1216V4.3248L28.3921 12.9629ZM28.4712 38.7578H3.86182V4.24219H17.1333V14.1562C17.1333 14.6675 17.3278 15.1578 17.6739 15.5194C18.02 15.8809 18.4895 16.084 18.979 16.084H28.4712V38.7578ZM15.8149 26.3652H7.729C7.53564 26.3652 7.37744 26.5305 7.37744 26.7324V28.9355C7.37744 29.1375 7.53564 29.3027 7.729 29.3027H15.8149C16.0083 29.3027 16.1665 29.1375 16.1665 28.9355V26.7324C16.1665 26.5305 16.0083 26.3652 15.8149 26.3652ZM7.37744 20.4902V22.6934C7.37744 22.8953 7.53564 23.0605 7.729 23.0605H24.604C24.7974 23.0605 24.9556 22.8953 24.9556 22.6934V20.4902C24.9556 20.2883 24.7974 20.123 24.604 20.123H7.729C7.53564 20.123 7.37744 20.2883 7.37744 20.4902Z" fill="#FB6514"/>
</svg>
