<svg width="56" height="57" viewBox="0 0 56 57" fill="none" xmlns="http://www.w3.org/2000/svg">
<rect x="0.0864258" y="0.93103" width="55.8621" height="55.8621" rx="11.6379" fill="#FB6514"/>
<g clip-path="url(#clip0_1686_8756)">
<path d="M36.1636 31.1897V21.8793C36.1636 20.5992 35.1162 19.5518 33.836 19.5518H17.5429C16.2627 19.5518 15.2153 20.5992 15.2153 21.8793V31.1897C15.2153 32.4699 16.2627 33.5173 17.5429 33.5173H33.836C35.1162 33.5173 36.1636 32.4699 36.1636 31.1897ZM33.836 31.1897H17.5429V21.8793H33.836V31.1897ZM25.6895 23.0431C23.7576 23.0431 22.1981 24.6026 22.1981 26.5345C22.1981 28.4664 23.7576 30.0259 25.6895 30.0259C27.6214 30.0259 29.1808 28.4664 29.1808 26.5345C29.1808 24.6026 27.6214 23.0431 25.6895 23.0431ZM40.8188 23.0431V35.8449C40.8188 37.125 39.7714 38.1724 38.4912 38.1724H18.7067C18.7067 37.0087 18.7067 37.125 18.7067 35.8449H38.4912V23.0431C39.7714 23.0431 39.655 23.0431 40.8188 23.0431Z" fill="white"/>
</g>
<defs>
<clipPath id="clip0_1686_8756">
<rect width="27.931" height="27.931" fill="white" transform="translate(14.0518 14.8965)"/>
</clipPath>
</defs>
</svg>
