<svg width="205" height="238" viewBox="0 0 205 238" fill="none" xmlns="http://www.w3.org/2000/svg">
<path d="M188.957 38.5906C157.648 38.6416 127.177 28.4762 102.17 9.63745C77.1633 28.4764 46.6926 38.6419 15.3837 38.5906C12.8134 38.5906 10.2432 38.5282 7.7041 38.3861V92.8171C7.73639 141.745 27.2093 186.826 69.9567 210.619L102.17 228.5L134.383 210.619C177.131 186.826 196.604 141.745 196.636 92.8171V38.3861C194.094 38.5282 191.524 38.5906 188.957 38.5906Z" fill="white"/>
<path d="M188.956 33.8602C158.667 33.9559 129.181 24.1211 105.014 5.86174L102.17 3.71985L99.3265 5.86174C75.1596 24.1218 45.6733 33.9568 15.3837 33.8602C12.8005 33.8602 10.3034 33.7946 7.96886 33.6633L2.97363 33.3834V92.8204C3.00915 147.449 26.5861 191.892 67.6609 214.755L102.17 233.914L136.684 214.755C177.754 191.895 201.331 147.453 201.371 92.8204V33.3834L196.376 33.6633C194.034 33.7946 191.54 33.8602 188.956 33.8602ZM191.906 92.8139C191.872 143.911 170.068 185.344 132.088 206.483L102.166 223.09L72.2525 206.486C34.2678 185.344 12.4647 143.911 12.4303 92.8171V43.2932C13.3989 43.3111 14.382 43.3204 15.3794 43.3212C46.5148 43.4197 76.8868 33.6868 102.166 15.5099C127.446 33.6872 157.82 43.4201 188.956 43.3212C189.953 43.3212 190.936 43.3118 191.906 43.2932V92.8139Z" fill="#C55514"/>
<path d="M102.167 237.311L66.2178 217.354C24.17 193.952 0.0355188 148.561 0 92.8224V30.2394L8.1349 30.6947C10.4113 30.8217 12.8492 30.8874 15.3818 30.8874C45.0265 30.9822 73.8851 21.3571 97.5378 3.48622L102.166 0L106.794 3.48622C130.449 21.3587 159.31 30.9839 188.957 30.8874C191.49 30.8874 193.928 30.8217 196.204 30.6947L204.34 30.2394V92.8171C204.303 148.561 180.172 193.951 138.13 217.348L102.167 237.311ZM5.94348 36.5273V92.8192C5.98115 146.337 28.9995 189.838 69.1045 212.156L102.167 230.509L135.238 212.153C175.335 189.834 198.355 146.336 198.39 92.8149V36.523L196.534 36.6306C194.15 36.7641 191.598 36.833 188.954 36.833C158.019 36.9304 127.905 26.8849 103.224 8.23498L102.167 7.44065L101.11 8.23498C76.4292 26.8855 46.3148 36.9311 15.3796 36.833C12.7351 36.833 10.1853 36.7641 7.79907 36.6306L5.94348 36.5273ZM102.167 226.49L70.8116 209.085C31.855 187.401 9.49429 145.024 9.46092 92.8192V40.2675L12.4876 40.3203C13.439 40.3375 14.4066 40.3472 15.3829 40.3472C45.8948 40.4321 75.6569 30.8955 100.437 13.0935L102.17 11.8514L103.903 13.0935C128.683 30.8953 158.445 40.4319 188.957 40.3472C189.934 40.3472 190.899 40.3382 191.852 40.3203L194.879 40.2675V92.816C194.844 145.023 172.485 187.4 133.535 209.081L102.167 226.49ZM15.4044 46.2939V92.8171C15.4378 142.801 36.6866 183.285 73.7004 203.888L102.167 219.689L130.642 203.883C167.645 183.283 188.896 142.803 188.929 92.8117V46.2939C157.907 46.3742 127.613 36.897 102.167 19.1511C76.7215 36.8974 46.427 46.3747 15.4044 46.2939Z" fill="#C55514"/>
<path d="M128.846 75.2821V97.4322C128.846 98.3182 128.494 99.1678 127.868 99.7943C127.242 100.421 126.392 100.773 125.506 100.773C124.62 100.773 123.77 100.421 123.144 99.7943C122.517 99.1678 122.166 98.3182 122.166 97.4322V75.2821C122.166 66.6826 114.447 59.6809 104.96 59.6809C95.4735 59.6809 87.7546 66.6826 87.7546 75.2821V99.0678C87.7546 99.9538 87.4027 100.803 86.7762 101.43C86.1498 102.056 85.3001 102.408 84.4142 102.408C83.5282 102.408 82.6786 102.056 82.0521 101.43C81.4257 100.803 81.0737 99.9538 81.0737 99.0678V75.2821C81.0737 62.9961 91.7871 53 104.96 53C118.133 53 128.846 62.9961 128.846 75.2821Z" fill="#292A2E"/>
<path d="M128.846 97.4322C128.846 98.3182 128.494 99.1678 127.868 99.7943C127.242 100.421 126.392 100.773 125.506 100.773C124.62 100.773 123.77 100.421 123.144 99.7943C122.517 99.1678 122.166 98.3182 122.166 97.4322V75.2821C122.166 66.6826 114.447 59.6809 104.96 59.6809C95.4735 59.6809 87.7546 66.6826 87.7546 75.2821V99.0678C87.7546 99.9538 87.4027 100.803 86.7762 101.43C86.1498 102.056 85.3001 102.408 84.4142 102.408C83.5282 102.408 82.6786 102.056 82.0521 101.43C81.4257 100.803 81.0737 99.9538 81.0737 99.0678V75.2821C81.0737 62.9961 91.7871 53 104.96 53C118.133 53 128.846 62.9961 128.846 75.2821V97.4322Z" fill="#292A2E"/>
<path d="M136.301 94.953H73.6186C69.9632 94.953 67 97.9162 67 101.572V160.614C67 164.27 69.9632 167.233 73.6186 167.233H136.301C139.957 167.233 142.92 164.27 142.92 160.614V101.572C142.92 97.9162 139.957 94.953 136.301 94.953Z" fill="#C55514"/>
<path d="M97.6017 153.639C97.0635 153.64 96.5304 153.534 96.0332 153.328C95.536 153.122 95.0844 152.82 94.7043 152.438L78.9013 136.634C78.1326 135.865 77.7007 134.822 77.7007 133.735C77.7007 132.648 78.1326 131.606 78.9013 130.837C79.67 130.068 80.7126 129.636 81.7997 129.636C82.8869 129.636 83.9295 130.068 84.6982 130.837L97.6051 143.744L130.703 109.05C131.084 108.669 131.536 108.367 132.033 108.161C132.53 107.955 133.063 107.849 133.602 107.849C134.14 107.849 134.673 107.955 135.17 108.161C135.668 108.367 136.119 108.669 136.5 109.05C136.881 109.431 137.183 109.882 137.389 110.38C137.595 110.877 137.701 111.41 137.701 111.948C137.701 112.487 137.595 113.02 137.389 113.517C137.183 114.014 136.881 114.466 136.5 114.847L100.504 152.437C100.123 152.819 99.6711 153.122 99.173 153.328C98.6748 153.534 98.1408 153.64 97.6017 153.639Z" fill="white"/>
</svg>
