<svg width="50" height="50" viewBox="0 0 50 50" fill="none" xmlns="http://www.w3.org/2000/svg">
<path d="M6.01502 31.3075L14.52 22.8025L21.59 29.875L29.4825 21.9825L25 17.5H37.5V30L33.0175 25.5175L21.59 36.945L14.52 29.875L8.33252 36.06C11.1411 40.2871 15.4516 43.2885 20.3906 44.4559C25.3296 45.6232 30.5277 44.8692 34.9316 42.3468C39.3354 39.8243 42.6155 35.7219 44.1073 30.871C45.5992 26.0201 45.191 20.7835 42.9656 16.2223C40.7403 11.6612 36.8641 8.11657 32.1226 6.30686C27.3811 4.49715 22.129 4.55768 17.4305 6.47617C12.732 8.39467 8.93852 12.0276 6.81885 16.6389C4.69918 21.2501 4.41182 26.4948 6.01502 31.31V31.3075ZM2.17002 35.2025L2.14502 35.1775L2.15502 35.1675C0.729842 31.9675 -0.00446925 28.503 2.04644e-05 25C2.04644e-05 11.1925 11.1925 0 25 0C38.8075 0 50 11.1925 50 25C50 38.8075 38.8075 50 25 50C14.825 50 6.07502 43.925 2.17002 35.2025Z" fill="#FB6514"/>
</svg>
