<svg width="57" height="57" viewBox="0 0 57 57" fill="none" xmlns="http://www.w3.org/2000/svg">
<rect x="0.931152" y="0.93103" width="55.8621" height="55.8621" rx="11.6379" fill="#FB6514"/>
<g clip-path="url(#clip0_1686_8740)">
<path d="M28.8621 21.8793C30.1423 21.8793 31.1897 22.9268 31.1897 24.2069C31.1897 25.4871 30.1423 26.5345 28.8621 26.5345C27.5819 26.5345 26.5345 25.4871 26.5345 24.2069C26.5345 22.9268 27.5819 21.8793 28.8621 21.8793ZM28.8621 32.3535C32.0043 32.3535 35.6121 33.8548 35.8449 34.6811V35.8449H21.8793V34.6927C22.1121 33.8548 25.7199 32.3535 28.8621 32.3535ZM28.8621 19.5518C26.2901 19.5518 24.2069 21.6349 24.2069 24.2069C24.2069 26.7789 26.2901 28.8621 28.8621 28.8621C31.4341 28.8621 33.5173 26.7789 33.5173 24.2069C33.5173 21.6349 31.4341 19.5518 28.8621 19.5518ZM28.8621 30.0259C25.7548 30.0259 19.5518 31.5854 19.5518 34.6811V38.1724H38.1724V34.6811C38.1724 31.5854 31.9694 30.0259 28.8621 30.0259Z" fill="white"/>
</g>
<defs>
<clipPath id="clip0_1686_8740">
<rect width="27.931" height="27.931" fill="white" transform="translate(14.8965 14.8965)"/>
</clipPath>
</defs>
</svg>
