<svg width="57" height="57" viewBox="0 0 57 57" fill="none" xmlns="http://www.w3.org/2000/svg">
<rect x="0.508545" y="0.327515" width="55.8621" height="55.8621" rx="11.6379" fill="#FB6514"/>
<g clip-path="url(#clip0_1686_8772)">
<path d="M29.6035 17.7844C23.8194 17.7844 19.1293 22.4745 19.1293 28.2586H15.6379L20.1651 32.7857L20.2466 32.9486L24.9483 28.2586H21.4569C21.4569 23.7547 25.0996 20.112 29.6035 20.112C34.1073 20.112 37.75 23.7547 37.75 28.2586C37.75 32.7624 34.1073 36.4051 29.6035 36.4051C27.3573 36.4051 25.3207 35.4857 23.8543 34.0077L22.2017 35.6603C24.0987 37.5573 26.7056 38.7327 29.6035 38.7327C35.3875 38.7327 40.0776 34.0426 40.0776 28.2586C40.0776 22.4745 35.3875 17.7844 29.6035 17.7844ZM28.4397 23.6034V29.4224L33.3858 32.3551L34.2819 30.8655L30.1854 28.4331V23.6034H28.4397Z" fill="white"/>
</g>
<defs>
<clipPath id="clip0_1686_8772">
<rect width="27.931" height="27.931" fill="white" transform="translate(14.4741 14.293)"/>
</clipPath>
</defs>
</svg>
