<svg width="56" height="57" viewBox="0 0 56 57" fill="none" xmlns="http://www.w3.org/2000/svg">
<rect x="0.0864258" y="0.327515" width="55.8621" height="55.8621" rx="11.6379" fill="#FB6514"/>
<g clip-path="url(#clip0_1686_8780)">
<path d="M28.0173 16.6206C21.5932 16.6206 16.3794 21.8344 16.3794 28.2585C16.3794 34.6827 21.5932 39.8965 28.0173 39.8965C34.4415 39.8965 39.6553 34.6827 39.6553 28.2585C39.6553 21.8344 34.4415 16.6206 28.0173 16.6206ZM28.0173 37.5689C22.885 37.5689 18.707 33.3909 18.707 28.2585C18.707 23.1262 22.885 18.9482 28.0173 18.9482C33.1497 18.9482 37.3277 23.1262 37.3277 28.2585C37.3277 33.3909 33.1497 37.5689 28.0173 37.5689ZM31.5087 21.8577V24.7672H26.8535V27.0947H31.5087V30.0042L35.582 25.931L31.5087 21.8577ZM24.5259 26.5128L20.4527 30.5861L24.5259 34.6594V31.7499H29.1811V29.4223H24.5259V26.5128Z" fill="white"/>
</g>
<defs>
<clipPath id="clip0_1686_8780">
<rect width="27.931" height="27.931" fill="white" transform="translate(14.0518 14.293)"/>
</clipPath>
</defs>
</svg>
