<svg width="135" height="93" viewBox="0 0 135 93" fill="none" xmlns="http://www.w3.org/2000/svg">
<path d="M43.9612 20.3479L34.7839 23.54C45.9039 32.5908 49.3544 39.6467 54.7346 53.4659C53.1594 40.283 51.7941 32.9711 43.9612 20.3479Z" fill="#9CE546"/>
<path d="M54.3355 18.3541H45.1582C52.7204 31.0578 53.5201 39.2573 54.3355 53.4672C56.9496 38.5527 57.3035 30.3714 54.3355 18.3541Z" fill="#528838"/>
<circle cx="49.1483" cy="12.3694" r="3.99012" fill="#528838"/>
<circle cx="37.9762" cy="15.5604" r="3.99012" fill="#9CE546"/>
<circle cx="27.6015" cy="22.7436" r="3.99012" fill="#90FDE1"/>
<path d="M34.3845 24.3383L26.4043 29.9244C40.7687 36.7076 45.4208 41.6611 51.9411 53.8652H55.1332C50.345 41.0968 44.9531 34.7832 34.3845 24.3383Z" fill="#90FDE1"/>
<path d="M83.9629 20.3485L93.1401 23.5406C82.0201 32.5914 78.5697 39.6474 73.1895 53.4665C74.7646 40.2836 76.1299 32.9718 83.9629 20.3485Z" fill="#9CE546"/>
<path d="M73.5886 18.3547H82.7659C75.2037 31.0585 74.4039 39.258 73.5886 53.4678C70.9745 38.5534 70.6206 30.3721 73.5886 18.3547Z" fill="#528838"/>
<circle cx="77.8786" cy="13.1652" r="3.99012" fill="#528838"/>
<circle cx="89.849" cy="15.5611" r="3.99012" fill="#9CE546"/>
<circle cx="100.222" cy="21.945" r="3.99012" fill="#90FDE1"/>
<path d="M93.5398 24.3388L101.52 29.925C87.1556 36.7082 82.5036 41.6617 75.9832 53.8657H72.7911C77.5793 41.0973 82.9712 34.7838 93.5398 24.3388Z" fill="#90FDE1"/>
<path d="M68.3003 6.38426C68.3003 9.24905 65.978 11.5714 63.1132 11.5714C60.2484 11.5714 57.926 9.24905 57.926 6.38426C57.926 3.51947 60.2484 6.10352e-05 63.1132 6.10352e-05C65.978 6.10352e-05 68.3003 3.51947 68.3003 6.38426Z" fill="#B8541B"/>
<path d="M70.6944 13.1677H55.9309C60.9888 27.7515 61.5999 36.6424 58.325 53.8669H69.0983C65.4026 38.9456 65.0743 30.1865 70.6944 13.1677Z" fill="#B8541B"/>
<path d="M61.3384 25.0383L62.7349 13.1677H63.7823L65.1789 25.0383L63.0841 27.1331L61.3384 25.0383Z" fill="white"/>
<path d="M13.4087 59.1033C13.3858 58.8 13.3228 58.5339 13.2198 58.305C13.1168 58.0703 12.9709 57.8729 12.782 57.7127C12.5932 57.5467 12.3585 57.4237 12.0781 57.3435C11.8034 57.2577 11.4801 57.2148 11.1081 57.2148C10.3069 57.2148 9.57722 57.4065 8.91909 57.7899C8.26096 58.1734 7.7087 58.7256 7.26232 59.4467C6.82166 60.1678 6.51834 61.0377 6.35238 62.0563C6.18069 63.0864 6.16639 63.9678 6.30946 64.7003C6.45253 65.4328 6.76157 65.9937 7.23656 66.3828C7.71728 66.772 8.36683 66.9665 9.1852 66.9665C9.91773 66.9665 10.5501 66.8607 11.0823 66.6489C11.6146 66.4372 12.0409 66.1367 12.3614 65.7476C12.6819 65.3584 12.8822 64.9006 12.9623 64.3741L13.7864 64.4599H9.76893L10.3183 61.0605H18.1129L17.718 63.4985C17.4547 65.1009 16.8882 66.4715 16.0183 67.6104C15.1541 68.7435 14.0782 69.6134 12.7906 70.22C11.503 70.8209 10.0894 71.1213 8.54996 71.1213C6.84455 71.1213 5.40525 70.7579 4.23206 70.0311C3.05887 69.3043 2.22047 68.2685 1.71686 66.9236C1.21897 65.5787 1.12168 63.9792 1.42499 62.125C1.66535 60.6714 2.10029 59.3837 2.72981 58.2621C3.36504 57.1404 4.14049 56.1932 5.05615 55.4207C5.97181 54.6424 6.9819 54.0558 8.08641 53.6609C9.19092 53.2603 10.3355 53.06 11.5201 53.06C12.556 53.06 13.4974 53.2088 14.3444 53.5064C15.1913 53.7982 15.9153 54.216 16.5162 54.7597C17.1171 55.2976 17.5663 55.9357 17.8639 56.674C18.1672 57.4122 18.2903 58.222 18.233 59.1033H13.4087ZM28.2874 65.1123L29.5235 57.6955H34.2621L32.0645 70.881H27.5663L27.9784 68.3744H27.841C27.4347 69.2156 26.8281 69.8738 26.0212 70.3488C25.22 70.818 24.3272 71.0527 23.3429 71.0527C22.4215 71.0527 21.6517 70.8409 21.0337 70.4174C20.4156 69.9939 19.9778 69.4102 19.7203 68.6662C19.4627 67.9223 19.4112 67.0696 19.5658 66.1081L20.9736 57.6955H25.7121L24.476 65.1123C24.3787 65.7647 24.4617 66.2769 24.7249 66.6489C24.9939 67.0209 25.426 67.2069 26.0212 67.2069C26.416 67.2069 26.7708 67.1239 27.0856 66.958C27.4061 66.7863 27.6693 66.5459 27.8754 66.2369C28.0871 65.9221 28.2245 65.5473 28.2874 65.1123ZM34.4745 70.881L36.6721 57.6955H41.2733L40.8613 60.2021H40.9986C41.3935 59.275 41.8885 58.5969 42.4837 58.1676C43.0789 57.7384 43.7284 57.5238 44.4323 57.5238C44.6383 57.5238 44.8358 57.541 45.0246 57.5753C45.2192 57.6039 45.4109 57.644 45.5998 57.6955L44.913 61.7473C44.6899 61.6614 44.4123 61.6014 44.0804 61.567C43.7484 61.527 43.4537 61.5069 43.1962 61.5069C42.7384 61.5069 42.3091 61.6128 41.9085 61.8245C41.5137 62.0306 41.176 62.3224 40.8956 62.7001C40.6209 63.0721 40.4378 63.5099 40.3462 64.0135L39.2131 70.881H34.4745ZM54.4674 65.1123L55.7035 57.6955H60.442L58.2445 70.881H53.7463L54.1583 68.3744H54.021C53.6147 69.2156 53.008 69.8738 52.2011 70.3488C51.3999 70.818 50.5071 71.0527 49.5228 71.0527C48.6014 71.0527 47.8317 70.8409 47.2136 70.4174C46.5956 69.9939 46.1578 69.4102 45.9002 68.6662C45.6427 67.9223 45.5912 67.0696 45.7457 66.1081L47.1535 57.6955H51.8921L50.6559 65.1123C50.5587 65.7647 50.6416 66.2769 50.9049 66.6489C51.1739 67.0209 51.6059 67.2069 52.2011 67.2069C52.596 67.2069 52.9508 67.1239 53.2656 66.958C53.586 66.7863 53.8493 66.5459 54.0553 66.2369C54.2671 65.9221 54.4044 65.5473 54.4674 65.1123ZM66.1828 76.1002C64.8551 76.1002 63.7506 75.9114 62.8692 75.5337C61.9936 75.1617 61.347 74.6466 60.9292 73.9885C60.5171 73.3361 60.3455 72.5864 60.4141 71.7394H64.981C64.9924 72.0256 65.0754 72.2545 65.2299 72.4262C65.3844 72.5978 65.5991 72.7209 65.8738 72.7953C66.1484 72.8697 66.4689 72.9069 66.8352 72.9069C67.4533 72.9069 67.9884 72.7552 68.4405 72.4519C68.8926 72.1543 69.1701 71.6192 69.2731 70.8466L69.6508 68.6147H69.5135C69.2731 69.0611 68.9498 69.4417 68.5435 69.7564C68.1371 70.0655 67.6707 70.303 67.1442 70.4689C66.6177 70.6292 66.0569 70.7093 65.4617 70.7093C64.5232 70.7093 63.6962 70.4918 62.9808 70.0569C62.2712 69.622 61.7562 68.9323 61.4357 67.9881C61.1209 67.0438 61.0894 65.8105 61.3412 64.2882C61.6045 62.6973 62.068 61.4039 62.7319 60.4081C63.3958 59.4124 64.1598 58.6827 65.0239 58.2191C65.8881 57.7556 66.7551 57.5238 67.6249 57.5238C68.2774 57.5238 68.8296 57.6383 69.2817 57.8672C69.7338 58.0904 70.0944 58.3908 70.3633 58.7685C70.6323 59.1405 70.8183 59.5497 70.9213 59.9961H71.0243L71.402 57.6955H76.1406L73.943 70.8466C73.7713 71.9683 73.3335 72.9183 72.6296 73.6966C71.9314 74.4807 71.0272 75.0758 69.917 75.4822C68.8124 75.8942 67.5677 76.1002 66.1828 76.1002ZM67.7623 67.3443C68.1972 67.3443 68.5921 67.2241 68.9469 66.9837C69.3017 66.7376 69.6022 66.3885 69.8483 65.9364C70.0944 65.4786 70.2689 64.9292 70.3719 64.2882C70.4749 63.6358 70.4807 63.0779 70.3891 62.6143C70.2975 62.145 70.1173 61.7873 69.8483 61.5413C69.5793 61.2895 69.2274 61.1636 68.7924 61.1636C68.3575 61.1636 67.9655 61.2895 67.6164 61.5413C67.2673 61.7873 66.9725 62.145 66.7322 62.6143C66.4918 63.0779 66.3201 63.6358 66.2171 64.2882C66.1141 64.9406 66.1055 65.4958 66.1914 65.9536C66.2772 66.4057 66.4518 66.7519 66.715 66.9923C66.9783 67.2269 67.3274 67.3443 67.7623 67.3443ZM82.6367 71.1213C81.2289 71.1213 80.0615 70.8524 79.1343 70.3144C78.2072 69.7707 77.5548 68.9924 77.1771 67.9795C76.7994 66.9608 76.7307 65.7418 76.9711 64.3226C77.2 62.9605 77.6722 61.7702 78.3875 60.7515C79.1086 59.7328 80.0157 58.9402 81.1087 58.3737C82.2075 57.8071 83.4379 57.5238 84.8 57.5238C85.7958 57.5238 86.6685 57.6783 87.4182 57.9874C88.1736 58.2964 88.7888 58.7456 89.2638 59.3351C89.7388 59.9246 90.0593 60.6371 90.2253 61.4726C90.3969 62.3024 90.3969 63.241 90.2253 64.2882L90.0536 65.387H78.2759L78.688 62.7774H86.1048C86.162 62.3997 86.1248 62.0678 85.9932 61.7816C85.8673 61.4898 85.6641 61.2637 85.3837 61.1035C85.109 60.9375 84.7771 60.8545 84.3879 60.8545C83.9988 60.8545 83.6325 60.9375 83.2891 61.1035C82.9515 61.2694 82.6625 61.5012 82.4221 61.7988C82.1875 62.0964 82.0301 62.4455 81.95 62.8461L81.4349 65.5931C81.3663 66.0165 81.392 66.3943 81.5122 66.7262C81.6324 67.0581 81.8413 67.3185 82.1389 67.5074C82.4364 67.6962 82.8199 67.7906 83.2891 67.7906C83.6096 67.7906 83.9129 67.7477 84.1991 67.6619C84.4909 67.5703 84.7485 67.4387 84.9717 67.267C85.2006 67.0896 85.3837 66.875 85.5211 66.6232H89.8476C89.5385 67.5388 89.0492 68.3343 88.3796 69.0096C87.7158 69.6792 86.8974 70.2 85.9245 70.5719C84.9574 70.9382 83.8614 71.1213 82.6367 71.1213ZM97.3438 71.1213C95.936 71.1213 94.7685 70.8524 93.8414 70.3144C92.9143 69.7707 92.2619 68.9924 91.8842 67.9795C91.5065 66.9608 91.4378 65.7418 91.6782 64.3226C91.9071 62.9605 92.3792 61.7702 93.0946 60.7515C93.8156 59.7328 94.7227 58.9402 95.8158 58.3737C96.9146 57.8071 98.145 57.5238 99.507 57.5238C100.503 57.5238 101.376 57.6783 102.125 57.9874C102.881 58.2964 103.496 58.7456 103.971 59.3351C104.446 59.9246 104.766 60.6371 104.932 61.4726C105.104 62.3024 105.104 63.241 104.932 64.2882L104.761 65.387H92.983L93.395 62.7774H100.812C100.869 62.3997 100.832 62.0678 100.7 61.7816C100.574 61.4898 100.371 61.2637 100.091 61.1035C99.8161 60.9375 99.4841 60.8545 99.095 60.8545C98.7058 60.8545 98.3396 60.9375 97.9962 61.1035C97.6585 61.2694 97.3695 61.5012 97.1292 61.7988C96.8945 62.0964 96.7372 62.4455 96.657 62.8461L96.142 65.5931C96.0733 66.0165 96.0991 66.3943 96.2192 66.7262C96.3394 67.0581 96.5483 67.3185 96.8459 67.5074C97.1435 67.6962 97.5269 67.7906 97.9962 67.7906C98.3167 67.7906 98.62 67.7477 98.9061 67.6619C99.198 67.5703 99.4555 67.4387 99.6787 67.267C99.9076 67.0896 100.091 66.875 100.228 66.6232H104.555C104.246 67.5388 103.756 68.3343 103.087 69.0096C102.423 69.6792 101.604 70.2 100.632 70.5719C99.6644 70.9382 98.5685 71.1213 97.3438 71.1213ZM110.54 67.7563L111.501 62.125H112.12L116.068 57.6955H121.391L114.901 64.5973H113.562L110.54 67.7563ZM105.767 70.881L108.686 53.3003H113.424L110.506 70.881H105.767ZM113.905 70.881L111.742 65.6617L115.416 62.2967L119.33 70.881H113.905ZM133.921 61.9876H129.664C129.687 61.713 129.638 61.4783 129.518 61.2837C129.398 61.0892 129.229 60.9404 129.011 60.8374C128.8 60.7343 128.559 60.6828 128.29 60.6828C127.821 60.6828 127.395 60.7887 127.011 61.0005C126.628 61.2065 126.413 61.4783 126.367 61.816C126.339 61.9476 126.382 62.0706 126.496 62.1851C126.611 62.2995 126.911 62.4054 127.397 62.5027L130.007 62.9834C131.312 63.2238 132.262 63.6616 132.857 64.2968C133.458 64.9263 133.675 65.759 133.509 66.7949C133.355 67.6933 132.96 68.4659 132.325 69.1126C131.69 69.7593 130.883 70.2572 129.904 70.6063C128.931 70.9497 127.855 71.1213 126.676 71.1213C124.599 71.1213 123.042 70.7064 122.006 69.8766C120.976 69.0468 120.507 67.9623 120.599 66.6232H125.2C125.211 67.0524 125.354 67.3757 125.629 67.5932C125.909 67.8049 126.281 67.9165 126.745 67.928C127.249 67.9452 127.689 67.845 128.067 67.6275C128.445 67.4043 128.656 67.1268 128.702 66.7949C128.719 66.606 128.636 66.4629 128.453 66.3656C128.276 66.2684 127.935 66.1711 127.432 66.0738L125.165 65.6617C123.861 65.4271 122.911 64.9578 122.316 64.2539C121.72 63.5443 121.514 62.6401 121.697 61.5413C121.846 60.6657 122.201 59.9303 122.762 59.3351C123.328 58.7399 124.072 58.2907 124.994 57.9874C125.915 57.6783 126.98 57.5238 128.187 57.5238C130.162 57.5238 131.655 57.9216 132.668 58.717C133.687 59.5068 134.105 60.597 133.921 61.9876Z" fill="#B8541B"/>
<path d="M39.9669 88.52L41.432 79.7296H43.7955L43.538 81.2634H43.6296C43.8814 80.7178 44.219 80.3057 44.6425 80.0272C45.0698 79.7449 45.5295 79.6037 46.0217 79.6037C46.1438 79.6037 46.2716 79.6114 46.4051 79.6266C46.5425 79.6381 46.6646 79.6571 46.7714 79.6839L46.4051 81.8528C46.2983 81.8147 46.1457 81.7841 45.9473 81.7613C45.7527 81.7345 45.5677 81.7212 45.3922 81.7212C45.0374 81.7212 44.7074 81.7994 44.4021 81.9558C44.0969 82.1084 43.8394 82.3221 43.6296 82.5968C43.4235 82.8715 43.2881 83.1882 43.2232 83.5468L42.4049 88.52H39.9669ZM50.135 88.6916C49.2384 88.6916 48.4964 88.5009 47.9088 88.1194C47.3213 87.734 46.9073 87.1999 46.667 86.517C46.4304 85.8302 46.3865 85.0309 46.5353 84.1191C46.6803 83.2187 46.9817 82.4308 47.4396 81.7555C47.8974 81.0802 48.4792 80.5556 49.185 80.1817C49.8908 79.804 50.6863 79.6152 51.5715 79.6152C52.4642 79.6152 53.2044 79.8078 53.7919 80.1932C54.3795 80.5747 54.7934 81.1088 55.0338 81.7956C55.2742 82.4823 55.3199 83.2816 55.1711 84.1935C55.0224 85.0901 54.7171 85.876 54.2555 86.5513C53.7938 87.2266 53.212 87.7531 52.51 88.1308C51.808 88.5047 51.0163 88.6916 50.135 88.6916ZM50.3754 86.8031C50.7874 86.8031 51.1518 86.6867 51.4685 86.454C51.7889 86.2175 52.0541 85.897 52.2639 85.4926C52.4776 85.0843 52.6264 84.6227 52.7103 84.1076C52.7942 83.6002 52.8 83.15 52.7275 82.757C52.655 82.3602 52.5024 82.0474 52.2697 81.8185C52.0407 81.5896 51.726 81.4751 51.3254 81.4751C50.9133 81.4751 50.5471 81.5934 50.2266 81.8299C49.9061 82.0627 49.641 82.3831 49.4311 82.7914C49.2213 83.1996 49.0744 83.6632 48.9905 84.182C48.9103 84.6856 48.9046 85.1358 48.9733 85.5326C49.042 85.9256 49.1927 86.2365 49.4254 86.4654C49.6581 86.6905 49.9748 86.8031 50.3754 86.8031ZM56.7192 91.8163C56.4063 91.8163 56.1202 91.7915 55.8608 91.7419C55.6013 91.6961 55.3877 91.637 55.2198 91.5645L56.0782 89.7447C56.3491 89.8324 56.5952 89.8782 56.8165 89.882C57.0416 89.8858 57.2476 89.8286 57.4345 89.7103C57.6215 89.592 57.7932 89.3975 57.9496 89.1266L58.1671 88.7546L56.5189 79.7296H58.9912L59.7351 86.1965H59.8267L62.7396 79.7296H65.4122L60.3818 89.47C60.1338 89.9469 59.8401 90.3608 59.5005 90.7118C59.1648 91.0628 58.7661 91.3337 58.3044 91.5245C57.8466 91.719 57.3182 91.8163 56.7192 91.8163ZM67.4424 88.6859C66.8854 88.6859 66.4027 88.5886 65.9945 88.3941C65.5901 88.1957 65.2925 87.9019 65.1017 87.5127C64.911 87.1236 64.8633 86.641 64.9587 86.0648C65.0426 85.5765 65.2009 85.1683 65.4337 84.8402C65.6702 84.5082 65.9583 84.2412 66.2978 84.039C66.6374 83.8367 67.0132 83.6822 67.4252 83.5754C67.8411 83.4686 68.2703 83.3961 68.7129 83.3579C69.2241 83.3045 69.64 83.253 69.9605 83.2034C70.2848 83.1538 70.527 83.0832 70.6873 82.9917C70.8475 82.8963 70.9448 82.7551 70.9791 82.5682V82.5338C71.0364 82.1752 70.9696 81.8967 70.7788 81.6983C70.5919 81.4961 70.2924 81.395 69.8803 81.395C69.4454 81.395 69.0753 81.4904 68.7701 81.6811C68.4687 81.8719 68.2531 82.1142 68.1234 82.4079L65.903 82.2248C66.1013 81.6907 66.4008 81.229 66.8014 80.8399C67.2059 80.4469 67.6923 80.1455 68.2608 79.9357C68.8292 79.722 69.4664 79.6152 70.1722 79.6152C70.6606 79.6152 71.1165 79.6724 71.54 79.7869C71.9673 79.9013 72.3355 80.0787 72.6445 80.3191C72.9573 80.5595 73.1824 80.8685 73.3198 81.2462C73.4609 81.6201 73.4896 82.0684 73.4056 82.5911L72.4156 88.52H70.1035L70.3096 87.301H70.2409C70.0539 87.5757 69.825 87.818 69.5541 88.0278C69.2833 88.2338 68.9723 88.396 68.6213 88.5142C68.2703 88.6287 67.8773 88.6859 67.4424 88.6859ZM68.421 87.0034C68.7758 87.0034 69.102 86.9328 69.3996 86.7917C69.701 86.6467 69.949 86.4521 70.1436 86.2079C70.342 85.9637 70.4679 85.6871 70.5213 85.3781L70.6701 84.4453C70.5938 84.4949 70.4832 84.5388 70.3382 84.5769C70.197 84.6151 70.0425 84.6513 69.8746 84.6856C69.7106 84.7162 69.5446 84.7448 69.3767 84.7715C69.2089 84.7944 69.0582 84.8173 68.9246 84.8402C68.6308 84.8821 68.3676 84.9489 68.1349 85.0405C67.9021 85.132 67.7133 85.256 67.5683 85.4124C67.4233 85.5651 67.3337 85.7558 67.2993 85.9847C67.2459 86.3167 67.3241 86.5704 67.534 86.7459C67.7476 86.9176 68.0433 87.0034 68.421 87.0034ZM78.6907 76.7995L76.7449 88.52H74.307L76.2528 76.7995H78.6907ZM84.8385 79.7296L84.5352 81.561H79.2358L79.5448 79.7296H84.8385ZM81.09 77.6236H83.5279L82.1659 85.8188C82.1277 86.0439 82.1335 86.2194 82.1831 86.3453C82.2327 86.4674 82.3147 86.5532 82.4292 86.6028C82.5474 86.6524 82.6886 86.6772 82.8526 86.6772C82.9671 86.6772 83.0835 86.6677 83.2017 86.6486C83.32 86.6257 83.4097 86.6085 83.4707 86.5971L83.5623 88.4112C83.4249 88.4532 83.2399 88.499 83.0072 88.5486C82.7782 88.5982 82.5074 88.6287 82.1945 88.6401C81.5993 88.663 81.0957 88.5848 80.6837 88.4055C80.2716 88.2224 79.976 87.9419 79.7966 87.5642C79.6173 87.1865 79.5792 86.7115 79.6822 86.1392L81.09 77.6236ZM85.9287 91.8163C85.6158 91.8163 85.3297 91.7915 85.0703 91.7419C84.8108 91.6961 84.5972 91.637 84.4293 91.5645L85.2877 89.7447C85.5586 89.8324 85.8047 89.8782 86.026 89.882C86.2511 89.8858 86.4571 89.8286 86.644 89.7103C86.831 89.592 87.0027 89.3975 87.1591 89.1266L87.3766 88.7546L85.7284 79.7296H88.2007L88.9446 86.1965H89.0362L91.9491 79.7296H94.6217L89.5913 89.47C89.3433 89.9469 89.0496 90.3608 88.71 90.7118C88.3743 91.0628 87.9756 91.3337 87.5139 91.5245C87.0561 91.719 86.5277 91.8163 85.9287 91.8163Z" fill="#6A4B39"/>
</svg>
